
        <svg xmlns="http://www.w3.org/2000/svg" xmlns:xlink="http://www.w3.org/1999/xlink" version="1.1" width="3128.94640790372" height="601.1459781690249" viewBox="0 0 3128.94640790372 601.1459781690249">
			
			<g transform="scale(6.447320395186) translate(10, 10)">
				<defs id="SvgjsDefs1365"/><g id="SvgjsG1366" featureKey="nameLeftFeature-0" transform="matrix(1.921317475641972,0,0,1.921317475641972,-0.21496928985064576,12.854535705434063)" fill="#fff"><path d="M6.18 17.28 l0 -0.1 c-0.02 0 -0.22 -0.6 -0.26 -0.68 c0.02 0 0.02 -0.02 0.02 -0.02 c0 -0.06 -0.18 -0.24 -0.18 -0.48 c0 -0.06 0 -0.06 0.04 -0.12 l-0.1 0 l-0.1 -0.2 l0.02 0 c0 -0.08 -0.34 -0.58 -0.34 -0.84 c0 -0.1 -0.32 -0.56 -0.32 -0.84 c0.06 -0.1 -0.26 -0.32 -0.26 -0.6 c-0.06 -0.32 0 -0.12 -0.32 -0.96 c0.02 -0.02 0.08 -0.04 0.12 -0.06 c0 -0.06 0 -0.04 -0.02 -0.06 c-0.14 0 -0.1 0 -0.16 0.02 c0 -0.2 -0.04 -0.3 -0.14 -0.38 c-0.18 -1.2 -0.5 -0.6 -0.5 -1.46 c0.02 0.02 -0.34 -0.48 -0.42 -1.02 l0.02 -0.02 c0 -0.1 -0.24 -0.26 -0.24 -0.6 c0 0 0.02 0 0.02 -0.02 c0 -0.12 -0.32 -0.48 -0.32 -0.74 c-0.06 0.04 -0.08 -0.52 -0.2 -0.62 c0.02 -0.2 -0.36 -0.58 -0.38 -1.06 c0 -0.08 -0.26 -0.8 -0.4 -0.8 c-0.02 0 -0.12 0.1 -0.16 0.1 l-0.76 0 c-0.02 0.02 -0.14 0.04 -0.16 0.06 c-0.34 0 -0.34 0 -0.54 -0.22 c0 -0.2 -0.3 -0.46 1.06 -0.46 l0.04 -0.04 c0.16 0 0.2 0.08 0.86 0.08 c1.32 0 2.38 -0.08 3.12 -0.08 c0.24 0 0.46 0.08 0.94 0.08 c0.2 0 0.56 -0.04 0.54 -0.08 c0.04 0 0.1 0.04 0.1 0.04 l0.56 0 l0.04 -0.04 s0.06 0 0.12 0.04 l0.38 0 l0.06 -0.04 c0.16 0 0.2 0 0.3 0.04 c0 0.04 0.02 -0.04 0.22 -0.04 c0.16 0 0.28 0.08 0.48 0.08 c0.6 0 0.4 -0.1 1.1 -0.1 c0.24 0 0.38 0.1 0.86 0.1 c3.44 0 2.74 -0.24 3.26 -0.24 c0.06 0.1 0.92 0.02 0.92 0.36 s-0.18 0.48 -0.58 0.48 c-0.02 0 -0.1 -0.06 -0.28 -0.06 c-0.36 0 -0.76 0.04 -0.8 0.36 l0 -0.02 c-0.04 0 -0.22 0.72 -0.26 0.72 c0 0.9 -0.32 0.38 -0.32 1.02 c-0.1 0.54 -0.28 0.22 -0.28 0.76 c0 0.16 -0.36 0.94 -0.36 0.92 c0 0.2 0.36 0.82 0.36 1.2 c0 0.4 0.3 0.5 0.3 0.72 c0 0.42 0.36 0.6 0.36 1.06 c0 0.5 0.38 0.62 0.42 1.1 c0 0.02 0 0.22 0.48 1.22 c0 0.04 0.14 0.7 0.42 0.7 c0 -0.04 0.28 -0.04 0.3 -0.12 c0 -0.04 -0.02 -0.1 -0.04 -0.14 c0 -0.18 0.28 -0.78 0.28 -0.96 c-0.02 0 -0.02 0 -0.02 -0.02 c0 -0.1 0.26 -0.4 0.26 -0.56 c0 -0.02 -0.02 -0.02 -0.02 -0.04 l0.02 0 c0.02 0 0.44 -1.14 0.44 -1.26 c0 0 -0.02 0 -0.02 -0.02 c0 -0.06 0.34 -0.36 0.34 -0.8 c0.04 -1 0.48 -0.88 0.48 -1.5 c0 0 -0.04 0.1 -0.04 0.14 l0 0 s0.08 -0.24 0.46 -1.32 c-0.02 0 -0.02 -0.02 -0.02 -0.04 c0 -0.14 0.3 -0.64 0.3 -0.84 c0.16 -0.44 0.16 -0.44 0.24 -0.6 c0 -0.9 0.46 -0.9 0.46 -1.44 c0 -0.14 -0.14 -0.26 -0.46 -0.28 c-0.04 0.02 -0.1 0.06 -0.12 0.06 s-0.06 -0.02 -0.14 -0.06 c-0.54 0.02 -0.4 0.04 -0.58 0.04 c-0.06 0 -0.08 -0.04 -0.1 -0.08 l-0.16 0 s-0.02 0.02 0.04 0.08 l-0.24 0 c-0.22 -0.02 -0.22 -0.28 -0.22 -0.28 l0 0 c0 -0.3 0.34 -0.46 1.24 -0.46 c0.14 0 0.48 0.1 0.56 0.1 c0.02 0 0.06 -0.02 0.2 -0.02 l0.74 -0.04 l1.56 0 c0 0.02 0.48 0.06 0.48 0.38 c0 0.4 -0.42 0.44 -0.5 0.44 c-0.2 0 -0.48 -0.16 -0.92 -0.16 c-0.16 0.02 -0.2 0.04 -0.32 0.04 c0.02 0 -0.3 0.08 -0.3 0.42 c0 0.02 0.02 0.04 0.02 0.06 c0 0.18 -0.34 0.54 -0.34 0.9 c-0.06 0.8 -0.38 0.48 -0.38 1.04 c-0.14 0.72 -0.48 1.12 -0.48 1.42 c-0.3 1.5 -0.66 1.2 -0.66 2.02 c0 0.06 -0.28 0.38 -0.28 0.8 c0 0 0.02 0 0.02 0.02 c0 0.06 -0.42 0.56 -0.42 0.98 c0 0.08 0.02 0.1 0.02 0.12 c0 0.06 -0.3 0.38 -0.3 0.78 c-0.16 0.84 -0.5 0.88 -0.5 1.4 c-0.14 0.64 -0.4 0.78 -0.4 1.26 c-0.16 0.76 -0.5 1.18 -0.5 1.28 c-0.1 0.64 -0.28 0.32 -0.28 0.9 c-0.18 1.04 -0.38 1.38 -0.9 1.38 c0 -0.06 -0.5 0.04 -0.5 -0.9 c-0.24 -0.98 -0.08 0.16 -0.76 -2 c0.02 0 0.02 -0.02 0.02 -0.04 c0 -0.1 -0.24 -0.32 -0.24 -0.54 l0 0.02 c-0.04 0 -0.1 -0.54 -0.44 -1.2 c0.02 -0.12 -0.28 -0.48 -0.3 -0.82 c0 0 0.02 -0.02 0.02 -0.04 c0 -0.12 -0.3 -0.54 -0.3 -0.78 c-0.02 0 -0.12 -0.52 -0.28 -0.6 c-0.2 0 -0.16 0.02 -0.2 0.12 c0.04 0.08 -0.28 0.36 -0.36 0.92 c0 -0.02 0 -0.02 -0.02 -0.02 s-0.02 0.42 -0.3 0.9 c0 0.08 0.02 0.12 0.02 0.14 c0 0.16 -0.18 -0.16 -0.54 1.4 c0.02 0 0.02 0.02 0.02 0.04 c0 0.28 -0.46 0.76 -0.46 1.32 c0.22 0 -0.28 -0.02 -0.28 0.54 s-0.24 0.38 -0.24 0.96 c0 -0.02 -0.02 -0.04 -0.02 -0.04 c-0.02 0 0.02 0.68 -0.56 0.68 c-0.04 0 -0.1 -0.02 -0.12 -0.06 c-0.52 -0.42 0.02 0.02 -0.62 -1.32 c0.02 0 0.04 -0.02 0.04 -0.02 c0 -0.1 -0.32 -0.38 -0.32 -0.78 c0 -0.06 -0.2 -0.26 -0.2 -0.54 c-0.06 0.16 0.04 -0.16 -0.24 -0.52 z M7.92 20.26 c-0.04 0 -0.04 0.02 -0.06 0.04 c-0.02 -0.02 0.02 0.04 0.06 -0.04 z M13.44 20.3 c0 -0.02 -0.02 -0.02 -0.04 -0.02 s-0.04 0 -0.04 0.02 s0.02 0.04 0.04 0.04 s0.04 -0.02 0.04 -0.04 z M13.48 20.14 c0 0.1 0 0.06 0.04 0.1 l0.08 -0.04 c-0.06 -0.02 -0.1 -0.02 -0.12 -0.08 l0 0.02 z M7.96 20.04 c-0.02 0 -0.04 0.02 -0.04 0.06 c0 0.02 0.02 0.04 0.04 0.04 c0 0 0.02 -0.02 0.02 -0.04 c0 -0.04 -0.02 -0.06 -0.02 -0.06 z M13.66 19.96 l0 0.18 l0.16 -0.16 z M13.76 19.56 l0 0.04 c0.02 0 0.04 -0.02 0.06 -0.04 l-0.06 0 z M14.02 19.24 l0 0.06 l0.02 -0.06 l-0.02 0 z M6.54 17.759999999999998 c-0.02 0 -0.04 0.02 -0.04 0.04 s0.02 0.04 0.04 0.04 s0.02 -0.02 0.02 -0.04 s0 -0.04 -0.02 -0.04 z M6.46 17.56 l0 0.04 c0.02 0 0.02 0 0.02 -0.02 c0 0 0 -0.02 -0.02 -0.02 z M6.54 17.3 c-0.1 0.04 -0.08 0.1 -0.08 0.22 c0.06 -0.08 0.08 -0.12 0.08 -0.22 z M6.46 17.02 l0 0.04 c0.04 0 0.06 0.02 0.08 -0.04 l-0.08 0 z M6 16.240000000000002 l0 0.22 l0.02 -0.06 c0 -0.16 0 -0.12 -0.02 -0.16 z M15.04 16.18 l0.04 0.04 l0 -0.04 l-0.04 0 z M5.16 5.960000000000001 c0 0.14 -0.02 0.12 -0.02 0.16 c0 0.1 0.22 0.38 0.22 0.56 c-0.02 0 -0.02 0 -0.02 0.02 c0 0.1 0.34 0.62 0.34 0.98 c0 0 -0.02 0.02 -0.02 0.04 c0 0.12 0.34 0.56 0.34 0.8 c0.02 0.16 0.04 0.32 0.46 1.24 c0 0.16 0.24 0.34 0.24 0.52 c0.06 0.98 0.52 1.22 0.52 1.52 c-0.02 0 -0.02 0.02 -0.02 0.04 c0 0.12 0.34 0.46 0.34 0.78 c0.08 0.06 -0.08 0.22 0.3 0.78 c-0.04 0.02 -0.04 0.04 -0.04 0.06 c0 0.14 0.32 0.34 0.32 0.66 c0 0.44 0.32 0.46 0.32 0.86 c0 0.14 0 0.36 0.3 0.74 c0.02 0 0.12 -0.04 0.16 -0.04 c0.28 -1.42 0.64 -1.22 0.64 -1.8 l-0.04 0.08 c0 -0.04 0.1 -0.32 0.58 -1.62 c0 -0.52 -0.18 -0.68 -0.26 -0.96 l0.02 0.02 c0.1 0.04 -0.44 -0.64 -0.44 -1.02 c0 -0.32 -0.28 -0.58 -0.28 -0.82 c0 -0.74 -0.52 -0.8 -0.52 -1.4 c0.02 -0.04 0.02 -0.08 0.02 -0.1 c0 -0.36 -0.7 -0.72 -0.7 -1.74 c0 -0.6 -0.54 -0.64 -1.14 -0.64 c-0.04 0 -0.28 0.04 -0.32 0.04 c-0.36 0 -0.96 -0.12 -0.98 -0.12 c-0.34 0.14 -0.32 0.24 -0.32 0.36 z M5.38 14.66 c0 0 -0.02 0.02 -0.02 0.04 s0.02 0.04 0.02 0.04 s0.02 -0.02 0.02 -0.04 s-0.02 -0.04 -0.02 -0.04 z M5.32 14.440000000000001 c-0.02 0 -0.04 0.02 -0.04 0.04 c0 0 0.02 0.02 0.04 0.02 s0.02 -0.02 0.02 -0.02 c0 -0.02 0 -0.04 -0.02 -0.04 z M5.28 14.379999999999999 c-0.02 0 -0.04 0.02 -0.04 0.04 c0 0 0.02 0.02 0.04 0.02 s0.02 -0.02 0.02 -0.02 c0 -0.02 0 -0.04 -0.02 -0.04 z M4.64 12.8 c0 0.04 0.02 0.06 0.06 0.1 c0 0 0 -0.06 -0.06 -0.1 z M15.94 12.780000000000001 c-0.02 0 -0.02 0.02 -0.02 0.02 s0 0.02 0.02 0.02 s0.02 -0.02 0.02 -0.02 s0 -0.02 -0.02 -0.02 z M16.26 12.54 c-0.02 0.02 0.04 0.16 0.04 0.2 l0.04 -0.04 c0 -0.02 -0.02 -0.12 -0.04 -0.16 l-0.04 0 z M4.34 12.04 c0 -0.02 0 -0.02 -0.02 -0.02 l0 0.04 c0.02 0 0.02 0 0.02 -0.02 z M3.9 10.74 c-0.02 0 -0.02 0.02 -0.02 0.04 s0 0.04 0.02 0.04 s0.02 -0.02 0.02 -0.04 s0 -0.04 -0.02 -0.04 z M17.04 10.48 l0 0.02 l0.04 -0.02 l-0.04 0 z M17 10.04 c-0.02 0 -0.02 0.02 -0.02 0.04 c0 0 0 0.02 0.02 0.02 s0.02 -0.02 0.02 -0.02 c0 -0.02 0 -0.04 -0.02 -0.04 z M3.48 9.68 c0 0.1 0.06 0.08 0.1 0.12 c0 -0.06 -0.08 -0.12 -0.1 -0.12 l0 0 z M11.98 9.76 c0 0 -0.02 -0.02 -0.04 -0.02 l-0.02 0.02 c0 0.02 0.02 0.04 0.02 0.04 c0.02 0 0.04 -0.02 0.04 -0.04 z M17.28 9.74 c-0.02 0 -0.02 0 -0.02 0.02 l0.04 0 c0 -0.02 0 -0.02 -0.02 -0.02 z M10.96 6 c0.62 1.64 0.38 1.34 0.76 2.12 l0.24 0 c0 -0.02 0.18 -0.26 0.18 -0.44 c-0.02 -0.02 -0.02 -0.04 -0.02 -0.04 c0 -0.1 0.22 -0.14 0.22 -0.58 c0 -0.08 0.34 -0.98 0.34 -1.1 c0 -0.16 -0.12 -0.32 -1.1 -0.32 c-0.3 0 -0.62 0.06 -0.62 0.36 z M2.78 7.52 c0 0.06 0 0.3 0.02 0.32 l0.04 0 c0.02 -0.04 0.1 -0.12 0.1 -0.26 c0 -0.06 -0.1 -0.06 -0.16 -0.06 z M17.98 7.76 l-0.04 0 c0 0.02 0 0.04 0.02 0.04 c0 0 0.02 -0.02 0.02 -0.04 z M17.76 7.76 c0 -0.02 -0.02 -0.02 -0.04 -0.02 s-0.04 0 -0.04 0.02 l0.08 0 z M17.94 7.42 c-0.04 0.12 -0.14 0.18 -0.14 0.34 l0.1 0 c0.02 -0.18 0.04 -0.2 0.04 -0.34 z M18.14 7.359999999999999 c0 -0.02 -0.02 -0.02 -0.02 -0.02 c-0.02 0 -0.02 0 -0.02 0.02 s0 0.04 0.02 0.04 c0 0 0.02 -0.02 0.02 -0.04 z M12.76 7.0600000000000005 c0 -0.02 -0.02 -0.02 -0.02 -0.02 c-0.02 0 -0.02 0 -0.02 0.02 s0 0.04 0.02 0.04 c0 0 0.02 -0.02 0.02 -0.04 z M14.78 5.640000000000001 l-0.06 -0.02 z M19.84 5.619999999999999 c0.04 0.04 0.22 0.02 0.34 0.02 l0.04 -0.02 c-0.04 -0.02 -0.08 -0.02 -0.12 -0.02 c-0.12 0 -0.18 0.02 -0.26 0.02 z M20.38 5.52 c0 0 0.06 0.12 0.12 0.12 c0.1 -0.08 0.06 -0.14 0.16 -0.24 c0 -0.22 -0.18 -0.14 -0.3 -0.16 c0 0.04 0.08 0.12 0.14 0.16 c0 0.02 -0.06 0.08 -0.12 0.12 z M6.9 5.5600000000000005 c-0.02 0 -0.04 0.02 -0.04 0.04 c0 0 0.02 0.02 0.04 0.02 l0.02 -0.02 c0 -0.02 -0.02 -0.04 -0.02 -0.04 z M12.02 5.5600000000000005 c-0.02 0 -0.04 0.02 -0.04 0.04 c0 0 0.02 0.02 0.04 0.02 s0.02 -0.02 0.02 -0.02 c0 -0.02 0 -0.04 -0.02 -0.04 z M12.08 5.5600000000000005 c-0.02 0 -0.04 0.02 -0.04 0.04 c0 0 0.02 0.02 0.04 0.02 l0.02 -0.02 c0 -0.02 -0.02 -0.04 -0.02 -0.04 z M14.24 5.5600000000000005 c-0.02 0 -0.04 0.02 -0.04 0.04 c0 0 0.02 0.02 0.04 0.02 l0.02 -0.02 c0 -0.02 -0.02 -0.04 -0.02 -0.04 z M16.22 5.26 c0.06 0.1 0.1 0.22 0.16 0.26 c0.1 -0.08 0.12 0 0.12 -0.12 c-0.02 -0.08 -0.08 -0.14 -0.28 -0.14 z M2.9 5.42 c-0.02 0 -0.04 0.02 -0.04 0.02 c0 0.02 0.02 0.02 0.04 0.02 s0.02 0 0.02 -0.02 c0 0 0 -0.02 -0.02 -0.02 z M20.04 5.4 l0 0.06 l0.02 0 c0 -0.02 0 -0.04 -0.02 -0.06 z M0.54 5.300000000000001 l0 0.02 l0.04 0.14 z M14.88 5.32 c0 0 0 -0.02 -0.02 -0.02 l0 0.06 c0.02 0 0.02 -0.02 0.02 -0.04 z M5.48 5.26 c-0.02 0 -0.04 0.02 -0.04 0.04 c0 0 0.02 0.02 0.04 0.02 s0.02 -0.02 0.02 -0.02 c0 -0.02 0 -0.04 -0.02 -0.04 z M14.78 5.24 l0 0.02 l0.04 0 z M17.9 5.26 l-0.02 0 l0.02 0 z M20.1 5.24 l0 0.02 l0.06 0 z M28.779 19.86 c0 -0.12 0.06 -0.16 0.06 -0.18 c-0.08 0 -0.08 0 -0.12 0.02 c-0.16 0 -0.44 -0.16 -0.56 -0.16 c-1.02 -0.82 -1.14 -1.18 -1.34 -1.52 c0 -0.26 -0.26 -0.36 -0.26 -0.98 c-0.1 -1.62 -0.22 -3.18 -0.22 -4.54 c0 -1.28 0.02 -1.76 0.02 -2.32 c0 -0.16 -0.02 -2.74 -0.02 -4.36 l-0.12 -0.18 l-0.32 0 c-0.04 -0.18 -0.08 -0.42 -0.28 -0.42 c-0.16 0 -0.14 0.06 -0.14 0.18 c0.04 0 0.18 -0.06 0.2 -0.08 l0.04 0.04 l0 0.22 c-0.04 0.02 -0.06 0.02 -0.08 0.02 c-0.06 0 -0.16 -0.02 -0.18 -0.02 l0.02 0.02 l-0.04 0.04 c-0.28 0 -0.66 0.06 -0.78 0.06 c-0.4 -0.12 -0.36 -0.2 -0.36 -0.46 c0.08 -0.02 0.14 -0.32 0.48 -0.32 c0.1 -0.02 0.46 0.06 0.5 0.06 c0.06 0 0.12 -0.02 0.18 -0.06 l1.1 0 c0.02 0.02 0.02 0.06 0.04 0.06 c0.06 0 0.22 -0.06 0.34 -0.06 c0.18 0 0.3 0.02 0.34 0.04 l0.9 0 l0.04 -0.04 l1.06 0 l0.08 0.04 c0.04 -0.04 0.08 -0.04 0.12 -0.04 c0.24 0 0.3 0.04 0.38 0.04 c0.04 0 0.12 -0.04 0.12 -0.04 l0.98 0 c0.18 0 0.3 0.2 0.36 0.3 c0 0 -0.02 0.3 -0.04 0.32 l-0.2 0.1 c-0.92 0 -0.84 -0.06 -1.46 -0.06 c-0.18 0 -0.34 0.1 -0.34 0.76 c0 0.28 0.04 0.34 0.04 0.4 l0 0 s-0.04 0.4 -0.04 0.66 c0 0.12 -0.02 0.42 0.04 0.46 c-0.02 0.32 0.02 0.26 -0.04 0.32 c0 0.06 0.04 0.1 0.04 0.16 l0 1.44 c0 0.08 -0.06 0.22 -0.06 0.24 s0.02 0.06 0.06 0.12 l0 0.68 l-0.04 0.06 c0 0.38 0.04 0.46 0.04 0.68 l0 2.04 c-0.04 0.06 -0.04 0.1 -0.04 0.14 c0 0.32 0.04 0.36 0.04 0.48 c-0.02 0.08 -0.04 0.16 -0.04 0.22 c0 0.04 0 0.1 0.04 0.18 l0 1.9 c0 1.4 0.4 1.48 0.4 1.7 c-0.02 0.02 -0.04 0.04 -0.04 0.06 c0 0.12 0.36 0.3 0.38 0.52 c0 -0.02 0.44 0.52 0.78 0.52 c-0.04 0 0.58 0.32 1.16 0.32 c0.76 0 0.86 -0.02 1.06 -0.02 s0.96 0 1.06 -0.14 l0 0.02 c0.02 0 0.08 -0.22 0.3 -0.22 c0.78 0 1.52 -1.44 1.68 -1.6 c0 -1.2 0.32 -1.64 0.32 -2.28 c0 -1.08 -0.1 -3.76 -0.1 -4.06 c0 -0.04 0.06 -0.1 0.06 -0.18 l0 -1.68 c-0.02 -0.04 -0.06 -0.1 -0.06 -0.1 c0 -0.04 0.02 -0.06 0.06 -0.1 c0 -0.9 -0.06 -0.82 -0.06 -1.1 c0 -0.04 0.06 -0.1 0.06 -0.16 l0 -2.08 c0 -0.1 -0.04 -0.24 -0.2 -0.34 c-1.68 0 -1.04 0.06 -1.5 0.06 c-0.24 0 -0.34 -0.06 -0.34 -0.44 c0.14 -0.18 -0.3 -0.32 1.58 -0.32 c0.1 0 0.78 0.02 0.82 0.02 c0.04 0.02 0.16 0.06 0.14 0.06 c0.02 0 0.06 -0.02 0.14 -0.06 c0.02 0 1.44 -0.06 1.6 -0.06 c0.14 0 0.5 0 0.5 0.36 c0 0.48 -0.14 0.42 -0.3 0.42 c-0.08 0 -0.42 -0.02 -0.36 -0.1 l0.14 0 c-0.04 0 -0.04 -0.04 -0.08 -0.04 c-0.06 0 -0.26 0.1 -0.44 0.1 c-0.14 0 -0.28 -0.02 -0.42 -0.02 c-0.2 0 -0.58 0.04 -0.58 0.32 c0 0.3 0.1 1.78 0.1 3.42 c0 0.04 0 0.04 -0.02 0.08 l0 5 c-0.02 2.56 -0.4 3.12 -0.4 3.38 c0 0.68 -0.46 0.58 -0.46 0.76 c0.02 0.02 0.02 0.06 0.02 0.08 c0 0.14 -0.26 0.26 -0.36 0.38 c0 -0.06 0 -0.16 -0.16 -0.16 c-0.04 0 -0.12 0.04 -0.14 0.06 c0.26 0 0.1 0.18 0.24 0.18 c0 0.08 -0.28 0.2 -0.36 0.2 l0.02 0.04 c-0.02 0 -0.02 -0.02 -0.02 -0.02 c-0.02 0.06 0.08 0.34 -0.38 0.34 c-0.38 0 -0.32 0.16 -0.36 0.2 l0.06 0.02 c0 0.02 -0.2 0.16 -0.48 0.16 c-0.02 0 -0.02 -0.02 -0.04 -0.04 c-0.2 0 -0.14 0.2 -0.4 0.2 c-0.36 0.1 -0.92 0.2 -1.64 0.2 c-2.32 0 -3.52 -0.46 -3.52 -0.52 z M32.339 20.02 l0 0.04 c0.06 0.02 0 0.26 0.06 0.26 s0.14 0 0.14 -0.04 c0 -0.08 -0.08 -0.16 -0.08 -0.22 c0 -0.02 0 -0.02 0.02 -0.04 l-0.14 0 z M32.259 20.26 l0 0.04 l0.06 0 l-0.02 -0.04 l-0.04 0 z M32.899 20.14 c-0.04 0 -0.04 0.04 -0.04 0.08 l0.06 0 c0 -0.02 -0.02 -0.06 -0.02 -0.08 z M32.859 20.06 l-0.02 0.02 c0 0.02 0.02 0.02 0.02 0.02 c0.02 0 0.02 0 0.02 -0.02 c0 0 0 -0.02 -0.02 -0.02 z M31.859 19.98 c-0.02 0 -0.04 0 -0.06 0.02 l0.1 0 z M32.259 19.98 l0 0.02 l0.04 0 z M31.959000000000003 19.94 c0 0 -0.02 0.02 -0.02 0.04 l0.02 0.02 c0.02 0 0.02 -0.02 0.02 -0.02 c0 -0.02 0 -0.04 -0.02 -0.04 z M31.519000000000002 19.9 l0 0.04 l0.06 0 l-0.02 -0.04 l-0.04 0 z M32.639 19.9 c-0.02 0 -0.02 0.02 -0.02 0.04 s0 0.04 0.02 0.04 s0.02 -0.02 0.02 -0.04 s0 -0.04 -0.02 -0.04 z M34.479 19.58 c-0.2 0 -0.18 0.16 -0.18 0.26 c0.14 -0.28 0.16 -0.16 0.2 -0.26 l-0.02 0 z M33.939 19.7 c-0.02 0 -0.04 0.02 -0.04 0.04 s0.02 0.04 0.04 0.04 l0 -0.08 z M35.239000000000004 19.48 c-0.02 0 -0.04 0.02 -0.04 0.04 c0 0 0.02 0.02 0.04 0.02 s0.02 -0.02 0.02 -0.02 c0 -0.02 0 -0.04 -0.02 -0.04 z M35.079 19.24 c-0.08 0 -0.06 0 -0.08 0.02 c0.16 0 0.1 0 0.16 -0.02 l-0.08 0 z M35.539 19.2 c-0.02 0 -0.02 0.02 -0.02 0.04 c0 0 0 0.02 0.02 0.02 s0.02 -0.02 0.02 -0.02 c0 -0.02 0 -0.04 -0.02 -0.04 z M29.999000000000002 19.12 c-0.02 0 -0.02 0.02 -0.02 0.04 s0 0.04 0.02 0.04 c0 0 0.02 -0.02 0.02 -0.04 s-0.02 -0.04 -0.02 -0.04 z M35.659 19 c-0.02 0 -0.02 0.02 -0.02 0.04 s0 0.04 0.02 0.04 s0.02 -0.02 0.02 -0.04 s0 -0.04 -0.02 -0.04 z M36.139 18.64 c-0.04 0 -0.12 0.1 -0.12 0.14 c0.16 0 0.08 -0.1 0.16 -0.14 l-0.04 0 z M27.559 18.54 l0.02 0.04 l0 -0.06 z M36.259 18.42 l-0.04 0.1 l0.08 -0.06 c-0.02 -0.02 -0.02 -0.04 -0.04 -0.04 z M27.039 18.06 c-0.02 0 -0.04 0.02 -0.04 0.04 s0.02 0.04 0.04 0.04 s0.02 -0.02 0.02 -0.04 s0 -0.04 -0.02 -0.04 z M36.179 17.82 l-0.02 0.02 c0 0.02 0.02 0.02 0.06 0.02 c0.06 0 0.06 -0.1 0.06 -0.12 c-0.12 0 -0.1 0.1 -0.1 0.08 z M36.659 17.740000000000002 l-0.02 -0.02 z M36.659 17.12 c-0.04 0.1 -0.02 0.14 -0.02 0.14 c0.02 -0.02 0.02 0.02 0.02 -0.14 z M26.659000000000002 17 c-0.02 0 -0.04 0.02 -0.04 0.02 c0 0.02 0.02 0.02 0.04 0.02 c0 0 0.02 0 0.02 -0.02 z M36.799 16.88 c0.02 0.04 0.04 0.04 0.08 0.04 c0 -0.02 -0.02 -0.08 -0.02 -0.12 c-0.04 0 -0.04 0.04 -0.06 0.08 z M26.619 16.64 c0 0.1 0.06 0.2 0.06 0.2 l0 -0.2 l-0.06 0 z M36.819 16.38 c-0.14 0 -0.04 0.18 -0.12 0.2 c0.12 0 0.14 -0.02 0.18 -0.02 c0 -0.06 -0.06 -0.1 -0.06 -0.18 z M36.579 16.22 c0.04 0.02 0.06 0.04 0.06 0.08 l0.02 -0.04 c0 -0.04 0 -0.04 -0.02 -0.06 z M26.999000000000002 16.18 c0 -0.02 -0.02 -0.02 -0.02 -0.02 c-0.02 0 -0.02 0 -0.02 0.02 s0 0.02 0.02 0.02 c0 0 0.02 0 0.02 -0.02 z M36.959 15.74 l-0.04 0.04 l0.04 0 l0 -0.04 z M36.579 14.68 c-0.02 0 -0.04 0.02 -0.04 0.04 s0.02 0.04 0.04 0.04 c0 0 0.02 -0.02 0.02 -0.04 s-0.02 -0.04 -0.02 -0.04 z M36.639 14.219999999999999 c-0.02 0 -0.04 0 -0.04 0.02 c0 0 0.02 0.02 0.04 0.02 l0 -0.04 z M36.639 14.04 c-0.02 0 -0.04 0.02 -0.04 0.04 c0 0 0.02 0.02 0.04 0.02 l0 -0.06 z M36.959 14.04 c-0.02 0 -0.04 0 -0.04 0.02 l0.04 0 l0.02 0 c0 -0.02 0 -0.02 -0.02 -0.02 z M36.579 13.98 c0 0.06 0 0.06 0.02 0.06 l0.04 -0.02 l-0.06 -0.04 l0 0 z M26.579 13.780000000000001 c-0.02 0 -0.02 0.02 -0.02 0.04 s0 0.04 0.02 0.04 s0.02 -0.02 0.02 -0.04 s0 -0.04 -0.02 -0.04 z M36.959 13.5 l0 0.06 l0.04 0 c0 -0.04 -0.02 -0.06 -0.04 -0.06 z M26.579 9.7 l0 0.02 l0.1 0 c-0.04 -0.04 -0.08 -0.02 -0.1 -0.02 z M36.959 9.48 c0 0.04 -0.02 0.16 0.04 0.16 l0 0.08 z M36.959 8.64 l-0.04 0 c0 0.02 0.02 0.02 0.04 0.02 s0.02 0 0.02 -0.02 l-0.02 0 z M24.499000000000002 5.539999999999999 c0.02 0.04 0.08 0.04 0.12 0.06 l0.04 -0.02 c-0.02 -0.04 -0.06 -0.04 -0.16 -0.04 z M25.079 5.6 c0 -0.02 -0.02 -0.02 -0.02 -0.02 c-0.02 0 -0.02 0 -0.02 0.02 s0 0.04 0.02 0.04 c0 0 0.02 -0.02 0.02 -0.04 z M26.199 5.58 c0 0 -0.02 0 -0.02 0.02 s0.02 0.04 0.02 0.04 s0.02 -0.02 0.02 -0.04 s-0.02 -0.02 -0.02 -0.02 z M24.759 5.539999999999999 l0.02 0.04 c0.12 0 0.1 -0.04 0.1 -0.1 z M30.379 5.52 l0 0.02 l0.16 0 c-0.06 -0.02 -0.14 -0.02 -0.16 -0.02 z M34.699 5.52 c-0.02 0 -0.04 0 -0.04 0.02 l0.04 0 l0.02 0 c0 -0.02 0 -0.02 -0.02 -0.02 z M36.279 5.48 l0 0.04 s0 0.02 0.02 0.02 c0 0 0.02 -0.02 0.04 -0.06 l-0.06 0 z M37.539 5.4399999999999995 c0.02 0.1 0.06 0.08 0.22 0.08 c-0.06 0 -0.1 -0.08 -0.16 -0.14 c-0.04 0 -0.08 0.02 -0.08 0.04 z M34.539 5.279999999999999 l0 0.2 l0.04 0 c0.02 -0.02 -0.04 -0.12 -0.04 -0.2 z M38.799 5.08 c0 0.18 0.18 0.18 0.18 0.32 l0.06 0 c0 -0.16 -0.14 -0.18 -0.18 -0.36 c-0.06 0 -0.06 0.02 -0.06 0.04 z M36.639 5.24 c0 0.06 0.04 0.1 0.1 0.12 l0.08 -0.08 c0.24 0 0.12 0.04 0.32 0.04 c0.06 0 0.14 -0.02 0.14 -0.1 c-0.02 0 -0.2 0.02 -0.26 0.02 c-0.04 0 -0.08 -0.02 -0.1 -0.02 s-0.06 0 -0.12 0.02 l-0.1 -0.02 z M25.899 5.279999999999999 c-0.02 0 -0.02 0.02 -0.02 0.04 s0 0.04 0.02 0.04 s0.02 -0.02 0.02 -0.04 s0 -0.04 -0.02 -0.04 z M26.519000000000002 5.24 l0 0.04 l0.06 0 l0 -0.04 l-0.06 0 z M38.179 5.279999999999999 l-0.04 0 l0.04 0 z M25.399 5.24 l-0.04 -0.02 l0.04 0.06 l0 -0.04 z M29.899 5.220000000000001 c-0.02 0 -0.04 0 -0.04 0.02 s0.02 0.04 0.04 0.04 s0.02 -0.02 0.02 -0.04 s0 -0.02 -0.02 -0.02 z M30.619 5.199999999999999 l0 0.02 l0.02 0 z M30.739 5.220000000000001 l-0.02 -0.02 c-0.02 0 -0.02 0.02 -0.02 0.02 s0 0.02 0.02 0.02 z M35.899 5.220000000000001 l-0.02 -0.02 c-0.02 0 -0.02 0.02 -0.02 0.02 s0 0.02 0.02 0.02 z M37.559 5.199999999999999 l0 0.02 l0.08 0 c-0.06 -0.02 -0.08 -0.02 -0.08 -0.02 z M24.659000000000002 5.199999999999999 c0 -0.02 -0.04 -0.02 -0.08 -0.02 c-0.02 0 -0.04 0 -0.04 0.02 c0 0 0.02 0.02 0.04 0.02 s0.06 0 0.08 -0.02 z M31.059 5.16 c-0.04 0 -0.08 0 -0.1 0.04 l0.1 0 l0 -0.04 z M34.659 5.16 c0 0 -0.02 0.02 -0.02 0.04 l0.02 0.02 c0.02 0 0.02 -0.02 0.02 -0.02 c0 -0.02 0 -0.04 -0.02 -0.04 z M34.739000000000004 5.16 l0 0.04 c0.02 0 0.04 -0.02 0.06 -0.04 l-0.06 0 z M54.898 20.22 c-0.04 -0.04 -0.16 -0.12 -0.2 -0.16 c0.04 0 -0.46 -0.46 -0.46 -0.68 c0 -0.08 -0.44 -0.52 -0.44 -0.72 c0 -0.18 -0.58 -0.46 -0.58 -0.86 c-0.28 -0.6 -0.48 -0.6 -0.52 -0.8 c0.02 0 0.04 0 0.04 -0.02 s-0.48 -0.36 -0.38 -0.56 c0 0 -0.02 0.02 -0.04 0.02 c-0.04 0 -0.14 -0.08 -0.44 -0.7 c0 -0.12 -0.42 -0.3 -0.5 -0.72 c-0.38 -0.26 -0.04 -0.42 -0.84 -1.22 c-0.26 -0.2 0.2 0.18 -0.7 -1.08 c0 -0.04 0 -0.06 0.04 -0.1 c0 -0.04 -0.04 -0.04 -0.14 -0.04 l0 -0.02 c0 -0.1 -0.3 -0.24 -0.3 -0.42 c0 -0.08 -0.18 -0.46 -0.5 -0.78 c-0.02 0.02 -0.02 0.04 -0.02 0.04 l0 0 s0.02 -0.02 0.02 -0.04 c0 -0.08 -0.08 -0.28 -0.52 -0.76 c0 -0.26 -0.38 -0.34 -0.48 -0.76 c0 -0.08 -0.6 -0.58 -0.62 -0.92 l0 -0.02 c0 -0.12 -0.34 -0.32 -0.5 -0.72 c0 -0.26 -0.42 -0.38 -0.42 -0.72 c-0.1 0 -0.16 -0.36 -0.68 -0.9 c-0.1 0.02 -0.26 0.1 -0.26 0.18 l0 0.76 c0 0.04 0.02 0.1 0.02 0.14 c0 0.02 -0.02 0.64 -0.02 0.72 c0 0.68 0.02 0.84 0.02 1.04 c0 1.06 -0.02 1.32 -0.02 1.66 c0 0.68 0.06 1.26 0.06 1.98 c0 0.02 -0.04 0.08 -0.04 0.36 l0 5.82 c0.06 0.06 0.16 0.2 0.24 0.2 l1.42 0 c0.2 0 0.46 0.12 0.46 0.4 c0 0.18 -0.14 0.22 -0.3 0.22 l-1.34 0 l-0.24 -0.08 l0.08 0 l-0.12 -0.12 l0 0.16 c-0.14 0.02 -1.32 0.06 -1.32 0.06 c-0.02 0 -0.06 0 -0.1 -0.02 c0.04 -0.02 0.08 -0.04 0.1 -0.08 c-0.16 0 -0.16 0.02 -0.22 0.08 l-0.38 0 l-0.04 -0.04 l0.04 -0.04 l-0.04 -0.04 c-0.04 0.02 -0.2 0.04 -0.2 0.08 l0.04 0.04 c-0.14 0.04 -0.22 0.02 -0.4 0.02 s-0.44 -0.02 -0.44 -0.26 c0 -0.44 0.74 -0.46 1.28 -0.46 l0.08 0.04 l0.5 0 l0.02 0 c0.18 0 0.18 -0.84 0.18 -1.22 c0 -3.14 -0.08 -3.88 -0.08 -10.28 c0.08 -0.24 0.08 -1.12 0.08 -1.58 c0 -0.44 -0.06 -0.74 -0.64 -0.74 c-0.66 0.04 -0.48 0.16 -0.86 0.16 c-0.28 0 -0.64 -0.1 -0.64 -0.44 c0 -0.22 0.38 -0.52 0.6 -0.52 c0.58 0 -0.06 0.2 1.56 0.2 c0.18 0 0.36 -0.06 0.46 -0.06 c0.3 0 0.6 0.06 0.88 0.06 c0.16 0 0.3 -0.02 0.38 -0.06 c0.06 0.04 0.24 0.04 0.3 0.04 l1.02 0 c0.48 0 0.94 0.98 0.96 0.98 c0.06 0 0.68 1.04 0.68 1.14 c0 0 1.62 2.42 2.06 3.08 l0 0.02 c0 0.04 0.3 0.22 0.3 0.44 l-0.02 0 l-0.02 0 c0 0.06 0.42 0.38 0.42 0.54 c0.56 0.74 0.26 0.68 0.84 1.26 l0.28 0.58 c0.02 0.06 0.46 0.46 0.46 0.68 c0.24 0.02 0.36 0.9 0.7 0.92 c0.08 0 0.2 0 0.2 -0.1 l0 -1.6 c0 -0.02 0.04 -0.14 0.04 -0.16 c0 -0.22 -0.04 -0.34 -0.04 -0.52 c0 -0.64 -0.04 -4.06 -0.04 -6.24 c-0.04 -0.18 -0.12 -0.32 -0.22 -0.4 c-0.7 0 -0.72 0.04 -0.92 0.04 c-0.66 0 -0.82 0.04 -0.82 -0.42 c0 -0.24 0.28 -0.28 0.72 -0.28 c0.34 0 0.88 0.02 1.56 0.08 c0.06 0 0.24 -0.04 0.3 -0.04 c0.08 0 0.24 0.04 0.36 0.04 c0.48 -0.04 0.94 -0.08 1.28 -0.08 c0.02 0.04 0.38 0.12 0.42 0.24 l0 0.34 c-0.02 0.08 -0.36 0.12 -0.46 0.12 c-0.22 0 -0.5 -0.04 -0.72 -0.04 c-0.66 0.16 -0.78 -0.18 -0.78 0.56 l0 2.98 c0 0.2 0.02 0.28 0.02 0.62 c0 0.42 0 2.9 -0.06 3 c0 -0.04 0.04 1.98 0.04 2.26 c0 0.8 -0.04 0.72 -0.04 0.86 c0 0.1 0.06 0.44 0.06 0.56 l0 -0.06 c0 0 -0.06 0.26 -0.06 1.5 c0 0.78 0.06 1.62 0.06 1.96 c0 0.14 -0.04 0.22 -0.28 0.48 c0 0.02 0 0.04 -0.02 0.04 s-0.06 -0.1 -0.2 -0.1 z M54.898 20.04 l0 0.02 l0.06 0 z M43.038000000000004 19.96 c0.02 0.02 0.02 0.04 0.06 0.04 c-0.02 -0.04 -0.06 -0.04 -0.06 -0.04 z M43.338 19.96 c-0.04 0 -0.06 0.02 -0.08 0.04 l0.04 0 s0.04 0 0.06 -0.04 l-0.02 0 z M43.838 19.96 l0.04 0.04 c0.04 0 0.2 -0.12 0.2 -0.32 l-0.12 0 c0 0.12 0.02 0.2 -0.12 0.28 z M44.578 19.96 c0 -0.02 -0.02 -0.02 -0.04 -0.02 c0 0 -0.02 0 -0.02 0.02 s0.02 0.04 0.02 0.04 c0.02 0 0.04 -0.02 0.04 -0.04 z M46.318000000000005 19.92 c0 0 -0.02 0.02 -0.02 0.04 s0.02 0.04 0.02 0.04 c0.02 0 0.02 -0.02 0.02 -0.04 s0 -0.04 -0.02 -0.04 z M46.578 19.92 l0 0.04 l0.04 0 l0 -0.04 l-0.04 0 z M47.358000000000004 19.92 c-0.02 0 -0.04 0.02 -0.04 0.04 s0.02 0.04 0.04 0.04 s0.02 -0.02 0.02 -0.04 s0 -0.04 -0.02 -0.04 z M44.118 19.9 c-0.02 0 -0.04 0 -0.04 0.02 l0.06 0 c0 -0.02 -0.02 -0.02 -0.02 -0.02 z M46.978 19.88 c-0.04 0 -0.06 0 -0.08 0.02 z M42.898 19.76 l0 0.04 l0 -0.06 l0 0.02 z M42.898 19.68 c0.04 0.02 0.1 0.02 0.14 0.08 c0.04 0 0.12 -0.06 0.14 -0.12 l-0.28 0 l0 0.04 z M47.418000000000006 19.64 l0 0.1 l0.04 0 c0 -0.04 0 -0.08 -0.04 -0.1 z M47.298 19.58 c-0.04 0 -0.12 0.02 -0.12 0.08 c0 0.02 0.02 0.02 0.02 0.04 c0.06 0 0.1 -0.04 0.1 -0.12 z M45.038000000000004 19.34 c0 0.04 0.02 0.08 0.06 0.08 s0.14 -0.04 0.14 -0.04 l0 -0.04 l-0.2 0 z M45.298 19.06 l0 0.12 l0.02 0 c0 -0.02 0 -0.06 -0.02 -0.12 z M45.098000000000006 18.2 c-0.06 0 -0.06 0.06 -0.06 0.06 l0.06 -0.06 l0 0 z M45.038000000000004 17.14 c-0.02 0 -0.02 0.02 -0.02 0.04 l0.04 0 c0 -0.02 0 -0.04 -0.02 -0.04 z M45.238 16.84 l0 0.02 l0.02 0 z M52.658 16.86 l-0.02 0 l0.02 0 z M45.098000000000006 16.16 l0.08 0.08 c0 -0.02 0.02 -0.04 0.02 -0.06 s-0.04 -0.06 -0.1 -0.08 c-0.1 0 -0.12 0 -0.16 0.02 c0 0.06 0.02 0.06 0.04 0.08 c0.04 -0.02 0.08 -0.04 0.12 -0.04 z M45.258 15.68 l0.04 0.04 c0.02 -0.02 0.02 -0.04 0.02 -0.08 c0 0 -0.04 0.02 -0.06 0.04 z M44.978 15.18 c-0.02 0 -0.04 0.02 -0.04 0.02 s0.02 0.02 0.04 0.02 s0.02 -0.02 0.02 -0.02 s0 -0.02 -0.02 -0.02 z M44.938 13.18 c-0.02 0 -0.04 0.02 -0.04 0.04 l0.04 0 l0.02 0 c0 -0.02 0 -0.04 -0.02 -0.04 z M44.938 13.02 l0 0.08 c0 0.02 0.02 0.02 0.02 0.02 c0.04 0 0.06 -0.1 0.06 -0.1 l-0.08 0 z M44.938 12.46 c-0.02 0 -0.04 0.02 -0.04 0.02 c0 0.02 0.02 0.02 0.04 0.02 s0.02 0 0.02 -0.02 c0 0 0 -0.02 -0.02 -0.02 z M44.938 9.3 c-0.02 0 -0.04 0.02 -0.04 0.04 s0.02 0.04 0.04 0.04 s0.02 -0.02 0.02 -0.04 s0 -0.04 -0.02 -0.04 z M44.898 9.22 c-0.02 0 -0.02 0.02 -0.02 0.04 l0.04 0 c0 -0.02 0 -0.04 -0.02 -0.04 z M55.498000000000005 5.48 c0 0 -0.02 0 -0.02 0.02 s0.02 0.04 0.02 0.04 c0.02 0 0.02 -0.02 0.02 -0.04 s0 -0.02 -0.02 -0.02 z M55.958000000000006 5.42 c0 0.06 0.06 0.06 0.08 0.06 l0.08 -0.26 c0.1 0 0.18 0.08 0.3 0.08 c0.02 0 0.04 0 0.04 -0.08 c0 -0.1 -0.16 -0.1 -0.28 -0.1 l0.02 0 s-0.26 0.12 -0.26 0.26 c0 0 0 0.02 0.02 0.04 z M56.978 5.1 l-0.02 -0.02 c0 0.04 0.12 0.32 0.12 0.4 c0.02 0 0.1 0 0.1 -0.24 c0 -0.16 -0.18 -0.12 -0.2 -0.14 z M55.718 5.42 c-0.02 0 -0.02 0.02 -0.02 0.04 c0 0 0 0.02 0.02 0.02 s0.02 -0.02 0.02 -0.02 c0 -0.02 0 -0.04 -0.02 -0.04 z M55.69800000000001 5.380000000000001 c-0.02 0 -0.02 0.02 -0.02 0.02 c0 0.02 0 0.02 0.02 0.02 c0 0 0.02 0 0.02 -0.02 z M44.038000000000004 5.279999999999999 c-0.02 0 -0.02 0.02 -0.02 0.02 c0 0.02 0.06 0.06 0.1 0.08 l0 -0.1 l-0.08 0 z M45.198 5.279999999999999 c0.02 0.02 0.04 0.08 0.04 0.08 c0.02 0 0.02 0 0.02 -0.02 l0 -0.12 l0 0 l-0.02 0 c0 0 -0.02 0.02 -0.04 0.06 z M42.898 5.18 l0 0.08 c0.04 -0.04 0.08 -0.06 0.08 -0.12 c0 -0.02 -0.04 -0.02 -0.06 -0.02 s-0.02 0.02 -0.02 0.02 l0 0.04 z M44.698 5.18 c0 0.04 0 0.06 0.04 0.08 c0.02 -0.02 0.04 -0.04 0.04 -0.08 l-0.08 0 z M54.478 5.18 l0 0.08 l0.02 0 z M54.978 5.140000000000001 l0 0.12 c0.06 0 0.08 -0.08 0.08 -0.12 l-0.08 0 z M55.138000000000005 5.140000000000001 c0 0.08 0.02 0.12 0.06 0.12 c0.02 0 0.02 0 0.02 -0.02 c0 -0.06 -0.04 -0.1 -0.06 -0.1 l-0.02 0 z M53.118 5.119999999999999 l-0.02 0.02 s0.08 0.08 0.14 0.08 c0 0 0.02 0 0.1 -0.08 c0 -0.02 -0.16 -0.02 -0.22 -0.02 z M56.658 5.140000000000001 c-0.06 0 -0.06 0.04 -0.06 0.1 c0.02 0 0.06 -0.06 0.1 -0.1 l-0.04 0 z M43.638000000000005 5.140000000000001 c0.02 0.04 0.02 0.06 0.04 0.06 s0.02 -0.02 0.04 -0.02 l0 -0.04 l-0.08 0 z M52.958000000000006 5.119999999999999 l0 0.02 l0.02 0 z M60.897000000000006 19.68 c0 -0.26 0.1 -0.14 0.22 -0.22 c0.14 0 0.38 0.02 0.64 0.02 c0.52 0 1.14 -0.06 1.2 -0.44 c0 -0.38 -0.06 -0.34 -0.06 -0.84 c0 -0.18 0.02 -1.7 0.02 -1.9 c0 -0.26 -0.02 -0.72 -0.02 -1.22 l0 -6.48 c0 -0.02 0.02 -0.2 0.02 -0.22 s-0.02 -0.06 -0.02 -0.28 l0 -2.08 c-0.04 -0.12 -0.04 -0.42 -0.16 -0.42 c-0.54 0 -1.4 0.06 -1.48 0.06 c-0.16 0 -0.38 -0.04 -0.38 -0.28 c0 -0.46 0.22 -0.44 0.28 -0.5 l1.16 0.02 s0.36 0.02 0.48 0.02 c0.06 0 0.18 -0.02 0.4 -0.02 l1.86 0 c0.04 0 0.14 -0.04 0.18 -0.04 s0.14 0.04 0.24 0.04 l3.14 -0.02 c0.18 0.02 0.66 0.16 1.2 0.16 c-0.02 0 -0.02 -0.02 -0.02 -0.02 c0.04 0 0.38 0.22 0.74 0.22 c0.06 0 0.78 0.02 0.78 0.3 c0 -0.02 0 -0.04 0.06 -0.04 c0.1 0 0.4 0.1 1.18 0.6 l0 0.04 c0.04 0.16 0.64 0.38 0.88 0.72 c0.02 0.24 0.7 0.72 0.7 0.88 c-0.02 0.02 -0.02 0.02 -0.02 0.04 l0 -0.02 c0.06 0 0.5 0.78 0.76 1.56 c-0.02 0 -0.02 0.02 -0.02 0.02 c0 0.12 0.46 0.74 0.46 1.68 c0.06 0.32 0.12 1.68 0.12 1.9 c0 0.14 -0.08 0.48 -0.08 0.74 c0 0 -0.16 0.76 -0.16 0.84 l-0.02 -0.02 c-0.06 0 0 0.74 -0.24 0.98 c-0.1 0 0.08 0.44 -0.32 0.84 c-0.06 0.04 -0.16 0.16 -0.16 0.42 c-0.72 1.24 -0.72 0.76 -0.98 1.3 c0 0.14 -0.16 0.12 -0.28 0.2 c-0.32 0.54 -0.88 0.76 -1.76 1.2 c-0.3 0 -0.84 0.38 -1.34 0.42 c0 0.02 -2.22 0.16 -3.24 0.16 c-0.24 0 -0.5 -0.02 -0.74 -0.02 c-0.12 0 -2.58 0.02 -3.5 0.04 c-0.08 0 -0.3 -0.02 -0.62 -0.02 c-0.34 0 -0.38 0.1 -0.76 0.1 c-0.18 -0.02 -0.34 -0.12 -0.34 -0.42 z M61.117000000000004 19.9 c0.1 0.04 0.16 0.04 0.2 0.04 c0.12 0 0.1 0 0.12 -0.04 l-0.32 0 z M61.99700000000001 19.94 c0 -0.02 -0.02 -0.02 -0.02 -0.02 c-0.02 0 -0.02 0 -0.02 0.02 s0 0.04 0.02 0.04 c0 0 0.02 -0.02 0.02 -0.04 z M62.257000000000005 19.9 c-0.02 0 -0.04 0.02 -0.04 0.04 s0.02 0.04 0.04 0.04 s0.02 -0.02 0.02 -0.04 s0 -0.04 -0.02 -0.04 z M67.477 19.86 c-0.02 0 -0.04 0.02 -0.04 0.04 s0.02 0.04 0.04 0.04 s0.02 -0.02 0.02 -0.04 s0 -0.04 -0.02 -0.04 z M67.797 19.9 c0 -0.02 -0.02 -0.02 -0.02 -0.02 c-0.02 0 -0.02 0 -0.02 0.02 s0 0.04 0.02 0.04 c0 0 0.02 -0.02 0.02 -0.04 z M61.477000000000004 19.62 c-0.06 0.02 -0.06 0.08 -0.06 0.12 c0.04 -0.02 0.06 -0.08 0.06 -0.12 z M61.097 19.58 c0 0.06 0.02 0.06 0.1 0.1 l-0.02 0.02 c0.04 0 0.16 -0.08 0.14 -0.14 c-0.06 0 -0.22 0 -0.22 0.02 l0 0 z M61.417 19.58 c-0.02 0 -0.02 0.02 -0.02 0.04 s0 0.02 0.02 0.02 l0 -0.06 z M65.857 18.64 c0.06 0.46 0.04 0.78 0.26 0.78 l1.36 0 c0.04 0 0.08 -0.02 0.12 -0.02 c0 0 0.14 0.02 0.26 0.02 c0.3 0 0.74 -0.02 0.9 -0.1 c-0.16 -0.12 0.18 0.16 0.6 -0.16 c0.94 -0.06 0.58 -0.2 0.94 -0.38 c0.06 0 0.48 -0.24 0.56 -0.42 c0 -0.16 0.32 -0.24 0.34 -0.32 c-0.02 -0.02 -0.04 -0.04 -0.04 -0.06 c0 -0.12 0.34 -0.2 0.34 -0.52 c-0.02 -0.02 -0.02 -0.02 -0.02 -0.04 c0 -0.08 0.2 -0.14 0.2 -0.5 l0 0.02 c0.06 0 0.46 -1.64 0.46 -2.48 c0 -0.02 -0.02 -0.32 -0.02 -0.64 s0.02 -0.64 0.1 -0.7 c0 -0.04 -0.04 -0.24 -0.04 -0.28 c0 0 0.04 -0.4 0.04 -0.44 c0 -5.4 -1.38 -5.74 -1.92 -6.3 c-0.4 0 -0.48 -0.36 -1.06 -0.36 c-1.08 -0.06 -1.6 -0.14 -3.14 -0.14 c-0.3 0.76 -0.04 1.54 -0.26 1.96 c0 0.04 0.06 0.14 0.06 0.62 c0 0.24 0 0.22 -0.04 0.3 l0 1.06 c0 0.02 0.04 0.16 0.04 0.2 c-0.02 0.02 -0.04 0.08 -0.04 0.08 c0 0.04 0.04 0.28 0.04 0.44 l-0.04 0.04 c0 0.02 0.04 0.2 0.04 0.26 l0 2.32 c0 0.04 0.02 0.2 0.02 0.24 c0 0.32 -0.06 1.24 -0.06 1.92 c0 0.16 0.04 0.3 0.04 0.36 c0 0.2 -0.04 0.44 -0.04 0.64 c0 0.26 0.02 0.78 0.06 0.78 c0 0.02 -0.02 0.34 -0.02 0.38 c0 0.02 -0.02 0.02 -0.02 0.04 s0.04 0.08 0.04 0.2 c0 0.04 0 0.24 -0.06 1.2 z M63.077000000000005 18.56 c-0.02 0 -0.02 0 -0.02 0.02 s0 0.04 0.02 0.04 s0.02 -0.02 0.02 -0.04 s0 -0.02 -0.02 -0.02 z M72.537 15.440000000000001 l0 0.02 l0.02 0 z M65.197 9.7 l-0.04 0.04 l0.04 0 l0 -0.04 z M63.077000000000005 8.06 c-0.04 0.08 -0.02 0.24 -0.02 0.32 z M63.157000000000004 7.960000000000001 c-0.02 0 -0.04 0.02 -0.04 0.04 c0 0 0.02 0.02 0.04 0.02 s0.02 -0.02 0.02 -0.02 c0 -0.02 0 -0.04 -0.02 -0.04 z M72.257 6.76 l-0.02 -0.02 c-0.02 0 -0.02 0.02 -0.02 0.02 c0 0.02 0 0.04 0.02 0.04 c0 0 0.02 -0.02 0.02 -0.04 z M72.397 6.76 c0 0 -0.02 -0.02 -0.04 -0.02 l-0.02 0.02 c0 0.02 0.02 0.04 0.02 0.04 c0.02 0 0.04 -0.02 0.04 -0.04 z M69.31700000000001 5.279999999999999 c0 0.08 0.04 0.1 0.06 0.1 s0.02 -0.02 0.02 -0.02 c0 -0.06 -0.08 -0.12 -0.16 -0.12 c-0.04 0.02 -0.16 -0.02 -0.2 0.04 l0.28 0 z M62.097 5.24 c-0.02 0 -0.04 0.02 -0.04 0.04 s0.02 0.04 0.04 0.04 s0.02 -0.02 0.02 -0.04 s0 -0.04 -0.02 -0.04 z M66.257 5.24 c-0.06 0 -0.06 0.02 -0.08 0.04 l0.08 -0.04 l0 0 z M68.43700000000001 5.24 l-0.22 0 l0 0.04 c0.1 0 0.28 0.02 0.32 -0.04 l-0.1 0 z M68.697 5.24 c0 -0.02 -0.02 -0.02 -0.02 -0.02 c-0.02 0 -0.02 0 -0.02 0.02 l0.04 0 z M79.27600000000001 19.82 l0 -0.1 c0.04 -0.04 -0.02 -0.38 0.42 -0.38 c0.34 0 0.4 0.02 0.58 0.02 c0.4 0 0.7 -0.02 0.76 -0.12 l0 -1.7 c0 -0.04 -0.02 -0.18 -0.02 -0.2 l-0.02 0.02 c-0.04 -0.04 0.04 0.18 0.04 -0.54 c0 -1.5 -0.02 -2.06 -0.02 -2.56 c0 -0.32 0 -0.94 0.04 -1.46 c0 -0.04 -0.08 -0.3 -0.08 -0.8 c0 -0.24 0.06 -0.24 0.06 -0.36 c0 -0.32 -0.02 -0.62 -0.02 -0.86 c0 -0.42 0.02 -0.74 0.02 -1.2 c0 -0.12 0.3 -0.1 0.36 -0.16 c0 0 0 -0.1 -0.18 -0.1 c0 0 -0.06 0 -0.12 0.08 c-0.02 0 -0.04 -0.02 -0.06 -0.08 l0 -3.38 c0 -0.26 -0.06 -0.42 -0.32 -0.42 c-0.38 0 -0.46 0.06 -1.14 0.06 c-0.54 0 -0.22 -0.08 -0.52 -0.26 c0 -0.48 1.5 -0.34 1.92 -0.4 l-0.06 0 c0 0.02 1.16 0.08 1.16 0.08 c0.04 0 0.08 0.02 0.12 0.02 c0.24 0 0.34 -0.1 0.52 -0.1 c0.08 0 0.16 0.02 0.26 0.02 c0.06 0 0.22 -0.02 0.32 -0.02 c0.24 0 0.96 0.02 1.18 0.02 c0.16 0 0.28 -0.06 0.6 -0.06 c0.1 0 1.84 0.04 2.06 0.04 c0.4 0 1.06 0.2 1.6 0.2 c0.76 0.08 0.3 0.18 1.06 0.36 c-0.02 0 -0.04 -0.02 -0.04 -0.02 c0 0.02 0.56 0.32 0.56 0.38 c0.24 0.06 0.6 0.56 0.78 0.72 l-0.02 -0.02 s0.54 0.76 0.54 1.44 c0 0.74 0 0.78 -0.16 1.28 c0 0.34 -0.46 0.94 -1.26 1.62 c-0.1 -0.04 -0.22 0.34 -0.58 0.34 c0.06 -0.2 -0.1 0.26 -0.66 0.3 c-0.02 -0.02 -0.04 -0.02 -0.04 -0.02 c-0.1 0 -0.24 0.18 -0.32 0.18 c-0.76 0.2 -1.1 0.12 -1.1 0.42 c0 0 -0.04 0.16 0.12 0.16 c0.22 -0.04 0.58 0.32 0.7 0.32 c0.42 0 0.5 0.38 0.84 0.38 c0.36 0.16 0.5 0.28 0.94 0.74 c0.44 1.3 0.78 0.6 0.78 1.58 c0 0.54 0.18 0.92 0.18 1.46 c0 0.08 -0.04 0.42 -0.04 1.12 c0.04 0.26 0.06 0.78 0.14 0.86 l0 -0.04 c0 0.02 -0.06 0.66 0.64 0.66 c0.48 0 0.7 -0.06 0.84 -0.06 c0 0 0.02 0.02 0.04 0.02 c0.04 0 0.14 -0.04 0.22 -0.04 s0.16 0.02 0.2 0.1 l-0.14 0 c0 0.1 0.06 0.1 0.06 0.14 c0.04 -0.02 0.06 -0.06 0.08 -0.06 l0.02 0 l0 0.26 c-0.06 0 -0.06 -0.06 -0.06 -0.14 c-0.04 0.02 -0.06 0.02 -0.16 0.06 c0 0.04 0.02 0.08 0.16 0.14 c-0.08 0.04 -0.1 0.14 -0.2 0.14 l0 -0.02 s-0.1 0.2 -0.7 0.2 c-0.22 0 -1.58 -0.08 -1.94 -0.1 c0 0.02 0 0.02 -0.02 0.02 c-0.16 0 -0.54 -0.4 -0.86 -0.4 l0.02 0 c0 -0.08 -0.9 -0.5 -0.92 -0.88 l0.02 0.02 c0 -0.02 -0.2 -0.2 -0.2 -0.26 c0 -0.04 0.02 -0.16 0.02 -0.28 c0 -0.06 -0.06 -0.06 -0.16 -0.1 c-0.14 -3.26 -0.44 -4.16 -0.74 -4.6 c-0.06 0.22 0.08 -0.24 -0.38 -0.46 c0 -0.14 -0.62 -0.36 -0.6 -0.44 c-0.04 0 -0.08 0.02 -0.1 0.02 c-0.42 0 -0.4 -0.4 -1.08 -0.4 l-1.08 0 c-0.22 0.46 -0.22 1.04 -0.22 1.32 c0 0.06 0 0.52 0.04 0.56 c0 0.02 -0.02 0.08 -0.06 0.28 c0 0.06 0.04 0.3 0.04 0.46 l0 -0.02 c0 0.12 -0.02 0.56 -0.02 0.7 c0 0.26 0.02 0.32 0.02 0.5 l0 2.32 c0 0.04 0.04 0.16 0.04 0.2 c0 0.06 -0.04 0.18 -0.04 0.26 c0 0.26 0.04 0.3 0.04 0.4 c-0.02 0.02 -0.04 0.02 -0.04 0.04 c0 0.06 0.28 0.1 0.82 0.1 c0.02 0 0.42 -0.04 0.44 -0.04 c0.56 0 0.56 0.04 0.68 0.2 c0 0.36 -0.08 0.42 -0.14 0.42 c-0.02 0 -0.04 -0.02 -0.08 -0.1 c-0.1 0 -0.12 0 -0.12 0.02 c0.16 0.18 -1.94 0.18 -2.16 0.18 l0.04 0 s-0.68 -0.02 -0.94 -0.08 c-0.8 0.08 -2.18 0 -2.74 0.2 c-0.24 0 -0.46 0 -0.46 -0.32 z M91.61600000000001 19.94 c-0.02 0 -0.04 0.02 -0.04 0.04 s0.02 0.04 0.04 0.04 c0 0 0.02 -0.02 0.02 -0.04 s-0.02 -0.04 -0.02 -0.04 z M92.156 19.76 c-0.14 0 -0.1 0.08 -0.16 0.18 c0 0 0.02 0.02 0.04 0.02 c0.06 0 0.12 -0.1 0.12 -0.2 z M80.31600000000002 19.88 c-0.04 0 -0.1 0 -0.14 0.02 c0.04 0 0.1 0 0.14 -0.02 z M80.35600000000001 19.88 l0 0.02 l0.04 0 z M81.07600000000001 19.9 l-0.02 -0.02 c-0.02 0 -0.02 0.02 -0.02 0.02 c0 0.02 0 0.04 0.02 0.04 c0 0 0.02 -0.02 0.02 -0.04 z M81.45600000000002 19.86 c-0.02 0.02 -0.04 0.02 -0.04 0.04 c0.02 0 0.06 0 0.08 -0.02 z M84.55600000000001 19.82 l0 0.06 l0.12 0 c-0.04 -0.04 -0.06 -0.06 -0.12 -0.06 z M85.33600000000001 19.86 c-0.02 0 -0.04 0.02 -0.04 0.02 s0.02 0.02 0.04 0.02 s0.02 -0.02 0.02 -0.02 s0 -0.02 -0.02 -0.02 z M92.23600000000002 19.7 c-0.02 0.06 0.08 0.16 0.08 0.18 c0.1 0 0.1 0 0.16 -0.02 c-0.06 -0.18 0 -0.22 -0.16 -0.3 c-0.06 0.04 -0.08 0.02 -0.08 0.14 z M84.27600000000001 19.82 l-0.04 0.04 l0.04 0 l0 -0.04 z M85.61600000000001 19.46 c0 0.18 0.12 0.18 0.12 0.32 l0.04 0 l0 -0.22 c-0.02 -0.04 -0.06 -0.08 -0.16 -0.1 z M79.61600000000001 19.5 l0 0.06 c0 -0.02 0.02 0.18 0.14 0.18 c0.02 0 0.06 -0.04 0.1 -0.08 c-0.02 0.02 -0.16 -0.16 -0.22 -0.16 l-0.02 0 z M79.95600000000002 19.7 c0 -0.02 -0.02 -0.02 -0.02 -0.02 c-0.02 0 -0.02 0 -0.02 0.02 c0 0 0 0.02 0.02 0.02 z M84.31600000000002 19.66 c-0.02 0 -0.02 0.02 -0.02 0.02 c0 0.02 0 0.02 0.02 0.02 s0.02 0 0.02 -0.02 c0 0 0 -0.02 -0.02 -0.02 z M84.936 19.6 l0 0.1 c0.04 -0.02 0.08 -0.04 0.1 -0.08 c-0.04 -0.02 -0.06 -0.02 -0.1 -0.02 z M79.61600000000001 19.36 c-0.02 0 -0.02 0.02 -0.02 0.04 s0 0.04 0.02 0.04 s0.02 -0.02 0.02 -0.04 s0 -0.04 -0.02 -0.04 z M88.83600000000001 18.84 c0.02 0.04 0.04 0.1 0.04 0.1 c0.02 0 0.02 0 0.02 -0.02 l0 -0.08 l-0.06 0 z M83.25600000000001 18.3 l0.08 0.04 c0.04 -0.02 0.04 -0.06 0.04 -0.1 c-0.06 0 -0.08 0.02 -0.12 0.06 z M87.99600000000001 17.5 c0.02 0 0.02 0.02 0.02 0.04 c0 0 0 0.02 -0.02 0.02 s-0.02 -0.02 -0.02 -0.02 c0 -0.02 0 -0.04 0.02 -0.04 z M88.23600000000002 17.48 c0.02 0.02 0.04 0.02 0.08 0.02 c-0.04 -0.02 -0.06 -0.02 -0.08 -0.02 z M81.296 15.4 c-0.02 0 -0.04 0.02 -0.04 0.04 s0.02 0.04 0.04 0.04 s0.02 -0.02 0.02 -0.04 s0 -0.04 -0.02 -0.04 z M81.13600000000001 14.879999999999999 c-0.02 0 -0.04 0.02 -0.04 0.04 s0.02 0.04 0.04 0.04 s0.02 -0.02 0.02 -0.04 s0 -0.04 -0.02 -0.04 z M87.816 12.48 c-0.02 0 -0.04 0.02 -0.04 0.02 c0 0.02 0.02 0.04 0.04 0.04 c0 0 0.02 -0.02 0.02 -0.04 z M83.03600000000002 12.14 l0 0.08 l0.02 0.02 c0.06 0 0.14 -0.08 0.14 -0.1 l-0.16 0 z M83.07600000000001 11.94 c0 0.02 -0.02 0.02 -0.02 0.02 c0 0.02 0.02 0.02 0.08 0.02 c0 0 0.02 0 0.06 -0.02 c-0.02 -0.06 0 -0.08 -0.06 -0.16 c-0.02 0 -0.08 0.12 -0.06 0.14 z M83.91600000000001 10.22 l0 1.02 c0 0.34 0.2 0.4 0.38 0.5 c3.18 -0.08 3.18 -0.52 3.48 -0.82 c-0.02 0 -0.02 -0.02 -0.02 -0.02 c0 -0.1 0.3 -0.3 0.3 -0.44 l-0.02 0 c0 -0.08 0.42 -0.74 0.42 -1.6 c0 -2.04 -0.56 -2.42 -0.64 -2.84 c0 -0.02 -0.6 -0.54 -1.3 -0.54 c-0.44 0 -0.54 0.04 -0.7 0.04 l-1.5 0 c-0.42 0 -0.26 0.2 -0.38 0.42 l0 1.58 l0.04 0.1 c0 0.78 -0.08 1.5 -0.08 2.2 c0 0.04 0 0.1 0.06 0.16 c0 0.04 -0.04 0.1 -0.04 0.24 z M81.296 9.78 c-0.02 0 -0.04 0.02 -0.04 0.02 l0.04 0 l0.02 0 s0 -0.02 -0.02 -0.02 z M81.236 9.68 c-0.02 0 -0.02 0.02 -0.02 0.04 c0 0 0 0.02 0.02 0.02 l0.02 -0.02 c0 -0.02 -0.02 -0.04 -0.02 -0.04 z M81.296 9.58 c-0.02 0 -0.04 0.02 -0.04 0.04 c0 0 0.02 0.02 0.04 0.02 s0.02 -0.02 0.02 -0.02 c0 -0.02 0 -0.04 -0.02 -0.04 z M81.13600000000001 8.42 l0 0.1 l0.04 0 c0 -0.04 0 -0.08 -0.04 -0.1 z M90.156 6.1 c0.02 0.04 0.08 0.04 0.1 0.04 l0 -0.12 c-0.06 0 -0.1 0 -0.1 0.08 z M88.63600000000001 5.42 c-0.02 0 -0.04 0.02 -0.04 0.04 s0.02 0.02 0.04 0.02 s0.02 0 0.02 -0.02 s0 -0.04 -0.02 -0.04 z M80.35600000000001 5.279999999999999 c0.04 0.02 0.08 0.02 0.12 0.02 l-0.08 -0.06 z M82.296 5.279999999999999 l0 -0.02 c-0.02 0 -0.02 0 -0.02 0.02 s0 0.02 0.02 0.02 l0 -0.02 z M86.97600000000001 5.24 l0.08 0.04 c0.1 0 0.1 -0.04 0.1 -0.14 c0 -0.02 -0.02 -0.02 -0.1 -0.02 c-0.04 0 -0.08 0 -0.08 0.12 z M84.936 5.119999999999999 c0 0.04 -0.02 0.12 0.04 0.12 c0.02 -0.02 0.04 -0.08 0.06 -0.12 l-0.1 0 z M87.73600000000002 5.199999999999999 c-0.02 0 -0.04 0.02 -0.04 0.02 c0 0.02 0.02 0.02 0.04 0.02 s0.02 0 0.02 -0.02 c0 0 0 -0.02 -0.02 -0.02 z M80.656 5.119999999999999 l0 0.04 c0 -0.02 0.06 0.04 0.1 -0.04 l-0.1 0 z M85.81600000000002 5.119999999999999 c-0.04 0 -0.06 0.02 -0.08 0.04 l0.08 0 l0 -0.04 z M79.27600000000001 5.119999999999999 l0.02 0 l0.48 0 l-0.5 0 z"/></g><g id="SvgjsG1367" featureKey="inlineSymbolFeature-0" transform="matrix(0.1255608848090458,0,0,0.1255608848090458,199,-5.750688428458944)" fill="#fff"><g xmlns="http://www.w3.org/2000/svg">    <path d="M587.1,45.8c-52.2,0-103.5,13.8-148.2,40.5c-43.8-25.9-95.1-40.5-147.2-40.5C130.8,45.8,0,176.5,0,337.4         c0,160.9,130.8,291.7,291.7,291.7c52,0,103.1-13.7,147.7-40.2c44.6,26.5,95.7,40.2,147.7,40.2c160.9,0,291.7-130.8,291.7-291.7         C878.8,176.5,748,45.8,587.1,45.8z M439.4,559.9c-46.1-30.9-80.6-74-100.4-123.3l113.7,113.7C448.4,553.6,443.9,556.8,439.4,559.9z          M473.4,532.7L323.8,383.2c-2.6-15-3.9-30.3-3.9-45.8c0-3.6,0.1-7.2,0.2-10.8l178.4,179.1C490.8,515.3,482.4,524.3,473.4,532.7z          M514.7,483.7L323.8,292.1c2.5-14.5,6.1-28.6,10.9-42.3l199.2,199.2C528.3,461,521.9,472.6,514.7,483.7z M544.6,421.5L345.8,222.6         c5.5-11.5,11.8-22.6,18.9-33.3l190.1,190.1C552.5,393.8,549.1,407.9,544.6,421.5z M380.9,167.4c7.9-9.6,16.5-18.7,25.8-27.3         l146.6,146.6c3.1,16.5,4.7,33.4,4.7,50.7c0,2.3,0,4.6-0.1,7L380.9,167.4z M427.6,122.8c3.7-2.8,7.6-5.5,11.5-8.2         c44.6,29.3,78.1,70.3,98,117.6L427.6,122.8z M24.5,337.4C24.5,189.7,144,70.2,291.7,70.2c44.2,0,86.6,10.3,125.1,31         c-76.2,54.6-120.4,142.1-120.4,236.2S341.6,519,416.8,573.6c-38.6,20.7-81.9,31-125.1,31C144,604.7,24.5,485.2,24.5,337.4z          M587.1,604.7c-44.2,0-86.6-10.3-125.1-31c76.2-54.6,120.4-142.1,120.4-236.2S538.2,155.8,462,101.3c38.6-20.7,80.9-31,125.1-31         c147.7,0,267.2,119.5,267.2,267.2C854.4,485.2,734.9,604.7,587.1,604.7z"/></g></g><g id="SvgjsG1368" featureKey="nameRightFeature-0" transform="matrix(1.9140305066135381,0,0,1.9140305066135381,305.49761704362356,13.501705353795055)" fill="#fff"><path d="M14.219 19.42 c-0.18 0 -0.28 0.04 -0.4 0.06 c-0.18 0 -0.14 0 -0.16 -0.02 l-0.06 0.02 c0 0.06 0.02 0.06 0.06 0.08 c0 -0.02 -0.06 0.04 -0.1 0.12 l0.02 0 c0 0.02 -0.64 0.52 -0.74 0.52 c-0.46 0 -0.46 -0.54 -0.46 -0.62 c0 -0.04 0 -0.04 0.02 -0.1 c0 -2.24 -0.1 -1.9 -0.1 -3.24 c0 0 0.02 -0.02 0.02 -0.04 c0 -0.06 -0.04 -0.16 -0.04 -0.26 c0 -0.18 0.08 -0.3 0.6 -0.3 c0.06 0 0.14 0.06 0.32 0.38 c0 0.1 0.36 0.4 0.4 0.58 c-0.02 0.02 -0.04 0.04 -0.04 0.06 c0 0.08 0.3 0.2 0.3 0.32 c0 0.02 -0.02 0.04 -0.02 0.04 c0 0.12 0.2 0.22 0.2 0.28 c0.24 0.44 0.26 0.42 0.58 0.74 c0.1 0 0.84 1.32 1.4 1.32 c0.72 0.06 0.86 0.32 1.62 0.32 c0.42 0 0.36 -0.02 0.5 -0.1 c-0.04 0.04 -0.02 0.04 -0.04 0.04 c0 0 0.14 -0.2 0.8 -0.2 c0.3 0 0.88 -0.56 1 -0.64 c0.04 -0.04 0.24 -0.12 0.24 -0.16 c0 -0.12 0.42 -0.7 0.48 -0.76 c-0.02 -0.04 -0.02 -0.08 -0.02 -0.1 c0 -0.3 0.32 0.16 0.32 -1.7 c-0.02 -0.06 -0.08 -0.7 -0.22 -0.82 c-0.06 0 -0.06 -0.46 -0.54 -0.78 c0 -0.02 0.02 -0.12 0.02 -0.16 c-0.78 -0.04 -0.38 -0.44 -0.9 -0.44 c-0.98 0 -0.2 -0.3 -1.26 -0.3 c-0.1 -0.1 -0.98 -0.08 -1.18 -0.2 c-0.04 0 -0.18 0.04 -0.22 0.04 c-0.24 0 -0.04 -0.2 -0.58 -0.2 c-1.82 -0.1 -0.84 -0.44 -1.46 -0.44 l0 -0.04 c0.06 0 0.14 -0.02 0.2 0.04 c0 0 0.1 -0.04 0.1 -0.06 c0 0 -0.04 -0.04 -0.04 -0.06 l-0.62 0 c-0.2 -0.18 -0.18 -0.3 -0.34 -0.34 c0 -0.02 -0.22 0.02 -0.56 -0.44 c0 -0.14 -0.44 -0.66 -0.54 -0.74 c-0.18 -0.94 -0.4 -1.5 -0.4 -2.22 c0.04 -0.22 0 -0.5 0.08 -0.64 l0 0.02 c0.02 0 0.1 -0.68 0.16 -0.64 c-0.02 0 -0.04 -0.02 -0.04 -0.04 c0 -0.16 0.42 -0.6 0.42 -0.76 c-0.02 -0.02 -0.02 -0.04 -0.02 -0.04 c0 -0.14 0.32 -0.28 0.32 -0.34 s0.26 -0.48 0.38 -0.56 c-0.02 0.02 -0.02 0.04 -0.02 0.04 c-0.02 0 0.98 -0.66 1 -0.68 c1.22 -0.2 0.16 -0.54 1.52 -0.54 l1.96 0 c0.04 0 0.46 0 0.66 0.16 c0.82 0.04 0.68 0.52 1.04 0.52 c0.66 0 0.48 -0.04 0.68 -0.24 c-0.08 -0.1 0.54 -0.02 0.6 -0.28 l0.26 0 c0.04 0 0.2 0.16 0.22 0.2 c0.06 2.48 0.18 2.42 0.18 3.72 c0 0.1 -0.18 0.16 -0.26 0.32 l-0.28 0 l0 -0.08 c-0.06 0 -0.48 -0.28 -0.48 -0.5 l0 0.02 c-0.02 0 -0.16 -0.5 -0.38 -0.58 l0.02 0 c0 -0.06 -0.26 -0.26 -0.26 -0.4 c-0.3 -0.44 -0.26 -0.42 -0.5 -0.66 l0.02 0 c0 -0.02 -0.5 -0.32 -0.5 -0.46 c0 -0.3 -0.74 -0.66 -0.9 -0.82 c0.06 -0.12 -0.52 -0.28 -1.1 -0.28 c-0.02 0 -0.04 0.02 -0.06 0.02 c-0.2 0 -0.12 -0.34 -0.18 -0.34 c-0.04 0.04 -0.06 0.04 -0.08 0.08 c-0.02 0 -0.1 -0.02 -0.16 -0.04 c-0.12 0.44 -0.32 0.2 -0.38 0.32 c-0.12 -0.06 -0.04 -0.12 -0.12 -0.14 c-0.42 0.2 -0.3 0.18 -1.22 0.64 c-0.6 1.18 -0.28 -0.28 -0.94 1.52 l0 0.88 l0 -0.02 c0.02 0 0.1 0.78 0.28 0.88 c0.04 0.06 0.3 0.26 0.38 0.42 c0.14 0 0.32 0.52 0.9 0.52 c0.24 0.26 1.18 0.2 2.14 0.44 c0.28 0.08 1.74 0.08 2.08 0.48 l-0.02 0 c0 0.04 0.48 0.08 0.56 0.14 c0 -0.04 0.96 0.56 0.96 0.68 c0 0.02 0 0.02 -0.02 0.02 c0.34 0 0.68 0.76 0.82 0.86 c0.1 0.72 0.38 0.5 0.38 1.06 c0.24 0.76 0.2 0.94 0.2 1.88 c-0.06 0.06 -0.1 0.76 -0.2 0.8 c0 1.02 -0.52 0.96 -0.52 1.4 l-0.26 0.24 c0 0.04 -0.02 0.12 -0.02 0.12 c-0.4 0.36 -0.26 0.42 -0.44 0.5 c-0.06 0 -0.16 0.3 -0.5 0.4 c-0.38 0.58 -0.54 0.12 -0.94 0.7 c-1.8 0 0.04 0.44 -1.96 0.44 c-2.28 0 -1.48 -0.06 -2.22 -0.24 c-0.02 0 -0.02 0.02 -0.04 0.02 c-0.12 0 -0.3 -0.16 -0.46 -0.16 c0 -0.02 -0.3 -0.06 -0.3 -0.1 c0 0.02 0.02 0.02 0.02 0.02 c0 -0.02 -0.28 -0.42 -0.5 -0.42 c-0.04 0 -0.08 0.02 -0.12 0.04 z M18.019 20.14 c-0.02 0 -0.02 0.02 -0.02 0.04 c0 0 0 0.02 0.02 0.02 s0.02 -0.02 0.02 -0.02 c0 -0.02 0 -0.04 -0.02 -0.04 z M16.519 20.1 c-0.02 0 -0.02 0.02 -0.02 0.02 c0 0.02 0 0.02 0.02 0.02 s0.02 0 0.02 -0.02 c0 0 0 -0.02 -0.02 -0.02 z M18.419 20.1 c-0.02 0 -0.04 0.02 -0.04 0.04 s0.02 0.04 0.04 0.04 s0.02 -0.02 0.02 -0.04 s0 -0.04 -0.02 -0.04 z M17.979 20.06 c-0.02 0 -0.04 0.02 -0.04 0.04 s0.02 0.04 0.04 0.04 s0.02 -0.02 0.02 -0.04 s0 -0.04 -0.02 -0.04 z M18.419 20.02 c-0.04 0 -0.06 0 -0.06 0.02 l0.02 0.02 l0.04 0 l0 -0.04 z M16.959 20.02 c-0.02 0 -0.02 0 -0.02 0.02 c0 0 0 0.02 0.02 0.02 s0.02 -0.02 0.02 -0.02 c0 -0.02 0 -0.02 -0.02 -0.02 z M18.419 19.88 l0 0.1 c0.04 -0.02 0.08 -0.06 0.1 -0.1 l-0.1 0 z M18.959 19.82 c-0.18 0 -0.18 0.06 -0.18 0.12 c0.02 0 0.06 -0.02 0.1 -0.04 c0.02 0 0.08 0.02 0.12 0.04 l0.08 -0.04 s0 -0.08 -0.12 -0.08 z M16.579 19.84 l0 0.04 l0.08 0 l0 -0.04 l-0.08 0 z M17.579 19.84 c-0.02 0 -0.02 0.02 -0.02 0.04 c0 0 0 0.02 0.02 0.02 s0.02 -0.02 0.02 -0.02 c0 -0.02 0 -0.04 -0.02 -0.04 z M18.139 19.84 c-0.02 0 -0.04 0.02 -0.04 0.04 c0 0 0.02 0.02 0.04 0.02 s0.02 -0.02 0.02 -0.02 c0 -0.02 0 -0.04 -0.02 -0.04 z M16.299 19.72 c-0.02 0 -0.04 0 -0.04 0.02 l0.04 0 l0.02 0 c0 -0.02 0 -0.02 -0.02 -0.02 z M15.679 19.66 c-0.02 0 -0.04 0 -0.06 0.02 z M15.619 19.58 c-0.02 0 -0.04 0.02 -0.04 0.04 s0.02 0.04 0.04 0.04 s0.02 -0.02 0.02 -0.04 s0 -0.04 -0.02 -0.04 z M15.679 19.56 c-0.02 0 -0.02 0.02 -0.02 0.04 c0 0 0 0.02 0.02 0.02 s0.02 -0.02 0.02 -0.02 c0 -0.02 0 -0.04 -0.02 -0.04 z M12.818999999999999 19.52 c-0.02 0 -0.04 0.02 -0.04 0.04 c0 0 0.02 0.02 0.04 0.02 l0.02 -0.02 c0 -0.02 -0.02 -0.04 -0.02 -0.04 z M15.619 19.52 c-0.02 0 -0.04 0.02 -0.04 0.04 c0 0 0.02 0.02 0.04 0.02 s0.02 -0.02 0.02 -0.02 c0 -0.02 0 -0.04 -0.02 -0.04 z M12.539 19.46 c-0.02 0 -0.04 0.02 -0.04 0.02 c0 0.02 0.02 0.04 0.04 0.04 c0 0 0.02 -0.02 0.02 -0.04 z M15.779 19.48 l-0.04 0 c0 0.02 0 0.04 0.02 0.04 c0 0 0.02 -0.02 0.02 -0.04 z M19.698999999999998 19.46 c-0.02 0 -0.02 0.02 -0.02 0.02 l0.04 0 c0 0.02 0 -0.02 -0.02 -0.02 z M12.539 19.12 l0 -0.08 l0 0.08 z M20.619 19.08 c-0.02 0 -0.04 0.02 -0.04 0.04 l0.06 0 c0 -0.02 -0.02 -0.04 -0.02 -0.04 z M20.899 18.84 l0 0.04 l0.02 0 z M20.839 18.78 c-0.02 0 -0.04 0.02 -0.04 0.04 c0 0 0.02 0.02 0.04 0.02 s0.02 -0.02 0.02 -0.02 c0 -0.02 0 -0.04 -0.02 -0.04 z M20.959 18.8 l0.04 -0.02 z M21.079 18.68 l0 0 l-0.04 0.04 c0.02 -0.02 0.02 -0.04 0.04 -0.04 z M12.599 18.66 c-0.02 0 -0.04 0 -0.04 0.02 c0 0 0.04 0 0.04 -0.02 l0 0 z M12.539 18.46 l0 0.12 l0.02 0 c0 -0.02 0 -0.1 -0.02 -0.12 z M21.698999999999998 18.02 c-0.02 0 -0.02 0.02 -0.02 0.02 s0 0.02 0.02 0.02 s0.02 -0.02 0.02 -0.02 s0 -0.02 -0.02 -0.02 z M21.079 16.38 l0.04 0.02 l0.04 -0.02 l-0.08 0 z M12.539 16.06 l-0.04 0 c0 0.02 0 0.04 0.02 0.04 c0 0 0.02 -0.02 0.02 -0.04 z M22.499000000000002 15.719999999999999 l0 -0.02 c-0.02 0 -0.02 0 -0.02 0.02 s0 0.04 0.02 0.04 l0 -0.04 z M14.099 12.34 c-0.02 0 -0.04 0.02 -0.04 0.04 s0.02 0.04 0.04 0.04 s0.02 -0.02 0.02 -0.04 s0 -0.04 -0.02 -0.04 z M13.279 11.48 c-0.02 0 -0.04 0.02 -0.04 0.04 c0 0 0.02 0.02 0.04 0.02 l0.02 -0.02 c0 -0.02 -0.02 -0.04 -0.02 -0.04 z M19.698999999999998 11.28 c-0.02 0 -0.02 0.02 -0.02 0.04 c0 0 0 0.02 0.02 0.02 s0.02 -0.02 0.02 -0.02 c0 -0.02 0 -0.04 -0.02 -0.04 z M13.039 11.2 l0 0.04 l0.04 -0.04 l-0.04 0 z M14.939 11.02 c0 0 -0.02 0 -0.02 0.02 l0.04 0 c0 -0.02 -0.02 -0.02 -0.02 -0.02 z M16.919 10.76 c-0.04 0 -0.14 0.04 -0.14 0.06 s0.02 0.02 0.02 0.02 c0.04 0 0.08 -0.04 0.12 -0.08 z M12.659 10.18 c-0.02 0 -0.04 -0.02 -0.04 0.1 c0 0.02 0.02 0.06 0.02 0.06 c0.02 0 0.04 -0.04 0.04 -0.06 c0 -0.04 -0.02 -0.08 -0.02 -0.1 z M12.599 9.98 c-0.02 0 -0.04 0.02 -0.04 0.04 s0.02 0.04 0.04 0.04 l0 -0.08 z M21.159 6.460000000000001 c-0.02 0 -0.04 0.02 -0.04 0.04 c0 0 0.02 0.02 0.04 0.02 s0.02 -0.02 0.02 -0.02 c0 -0.02 0 -0.04 -0.02 -0.04 z M21.439 6.460000000000001 c-0.02 0 -0.02 0.02 -0.02 0.04 c0 0 0 0.02 0.02 0.02 s0.02 -0.02 0.02 -0.02 c0 -0.02 0 -0.04 -0.02 -0.04 z M21.519 6.460000000000001 c-0.02 0 -0.04 0.02 -0.04 0.04 c0 0 0.02 0.02 0.04 0.02 l0.02 -0.02 c0 -0.02 -0.02 -0.04 -0.02 -0.04 z M17.039 6.02 l0 -0.22 c0.02 -0.02 0.06 -0.04 0.08 -0.06 l0.04 0.04 c0 0.06 -0.08 0.16 -0.08 0.28 z M21.439 5.9399999999999995 c-0.02 0 -0.02 0.02 -0.02 0.04 c0 0 0 0.02 0.02 0.02 s0.02 -0.02 0.02 -0.02 c0 -0.02 0 -0.04 -0.02 -0.04 z M14.879 5.84 c-0.1 0.02 -0.1 0.1 -0.1 0.1 c0.02 -0.02 0.1 -0.06 0.1 -0.08 l0 -0.02 z M14.399000000000001 5.74 c0 0.04 0.06 0.06 0.1 0.06 c-0.02 -0.06 -0.1 -0.06 -0.12 -0.06 l0.02 0 z M21.359 5.779999999999999 c0.02 0.02 0.04 0.02 0.06 0.02 c0.08 0 0.1 -0.06 0.1 -0.12 z M14.719 5.619999999999999 c-0.06 0 -0.04 0.06 -0.04 0.12 l0.04 0 l0 -0.12 z M18.679000000000002 5.4399999999999995 c-0.06 0.1 -0.04 0.18 -0.04 0.26 c0.08 -0.02 0.1 -0.12 0.1 -0.22 c-0.02 -0.02 -0.02 -0.04 -0.06 -0.04 z M14.719 5.52 c-0.02 0 -0.04 0 -0.04 0.02 l0.04 0 l0.02 0 c0 -0.02 0 -0.02 -0.02 -0.02 z M21.159 5.48 c0 -0.02 -0.02 -0.02 -0.06 -0.02 c-0.02 0 -0.04 0 -0.04 0.02 s0.02 0.04 0.04 0.04 c0.04 0 0.06 -0.02 0.06 -0.04 z M21.239 5.42 c-0.02 0 -0.04 0.02 -0.04 0.02 l0.02 0 l0.02 0 l0 -0.02 z M19.259 5.42 l-0.02 -0.02 z M18.019 5.4 c0 -0.02 -0.02 -0.02 -0.02 -0.02 s-0.02 0 -0.02 0.02 s0.02 0.02 0.02 0.02 s0.02 0 0.02 -0.02 z M20.739 5.4 c0 -0.02 -0.02 -0.02 -0.02 -0.02 c-0.02 0 -0.02 0 -0.02 0.02 s0 0.02 0.02 0.02 c0 0 0.02 0 0.02 -0.02 z M20.999000000000002 5.359999999999999 c-0.02 0 -0.04 0.02 -0.04 0.04 c0 0 0.02 0.02 0.04 0.02 s0.02 -0.02 0.02 -0.02 c0 -0.02 0 -0.04 -0.02 -0.04 z M21.439 5.32 l0 0.08 l0.04 -0.04 z M15.359 5.16 c0 0.06 0.04 0.14 0.04 0.2 l0.04 -0.1 s-0.02 -0.08 -0.04 -0.14 z M18.878999999999998 5.24 c-0.02 0 -0.04 0.02 -0.04 0.02 s0.02 0.02 0.04 0.02 s0.02 -0.02 0.02 -0.02 s0 -0.02 -0.02 -0.02 z M21.058999999999997 5.119999999999999 c-0.06 0.02 -0.08 0.08 -0.1 0.14 c0.12 0 0.1 -0.06 0.1 -0.14 z M21.439 5.24 l0 0.02 l0.04 0 z M21.439 5.119999999999999 c-0.02 0 -0.02 0.02 -0.02 0.02 c0 0.02 0 0.02 0.02 0.02 s0.02 0 0.02 -0.02 c0 0 0 -0.02 -0.02 -0.02 z M17.259 5.039999999999999 c-0.02 0.06 0.1 0.08 0.1 0.08 c0.04 -0.06 0.24 0.02 0.22 -0.08 l-0.32 0 z M18.519 5.08 l-0.04 0 c0 0.02 0 0.04 0.02 0.04 c0 0 0.02 -0.02 0.02 -0.04 z M16.139 5 l0 0.04 l0.08 0 l0 -0.04 l-0.08 0 z M16.519 4.960000000000001 c-0.06 0 -0.14 0.06 -0.16 0.08 l0.16 0 l0 -0.08 z M18.019 5 l0 0.04 l0.12 0 z M26.378 19.76 c0 -0.4 0.1 -0.28 0.26 -0.4 l1.5 0 c0.04 0 0.2 -0.16 0.2 -0.32 l0 -2.22 c0 -0.06 0.02 -0.14 0.02 -0.22 c0 0 -0.02 -0.16 -0.02 -0.18 c0 -0.34 0 -0.44 0.02 -0.54 c0 -1.86 -0.04 -6.22 -0.04 -10.12 c0 -0.14 -0.22 -0.14 -0.42 -0.28 c-0.06 0 -0.3 0.14 -0.44 0.14 l-0.92 0 c-0.08 -0.1 -0.24 -0.18 -0.24 -0.46 c0 -0.1 0.1 -0.28 0.78 -0.28 c0.8 0 2.28 0.06 2.62 0.06 c1.38 0 3.12 -0.04 3.84 -0.04 c2.12 0 2.7 0.44 3.18 0.54 l0.02 -0.02 c0.08 0 0.24 0.32 0.78 0.46 c0.14 0 0.7 0.64 0.76 0.66 c0 0.24 0.84 0.7 0.84 2.52 c0 0.86 -0.22 0.86 -0.24 1.16 l0 -0.02 c-0.04 0 -0.18 0.44 -0.28 0.44 c0 0 -0.18 0.46 -0.32 0.56 c-0.78 0.76 -0.6 0.4 -1.48 1.14 c-0.42 0 -0.28 0.36 -0.8 0.36 c-1.42 0.06 -1.02 0.3 -1.9 0.3 c-1 0.1 -1.34 0.18 -2.68 0.18 c0 0.02 -0.16 0.02 -0.16 0.42 l0.04 2.54 l-0.04 0.08 l0 0.3 c0 0.16 0 0.3 0.04 0.34 c0 0 -0.06 0.08 -0.06 1.22 c0 0.62 0.06 1.32 0.46 1.32 c0.22 0 0.36 -0.04 0.5 -0.04 c1.42 0 1.14 0.06 1.3 0.36 c-0.12 0.1 -0.04 0.26 -0.24 0.26 l-0.5 0 c-0.04 -0.14 -0.14 -0.14 -0.24 -0.2 c-0.04 0.02 -0.08 0.02 -0.08 0.06 l0.2 0.1 l-0.04 0.04 l-0.62 0 l-0.1 -0.04 c-0.06 0 -0.24 0.04 -0.32 0.04 l-2.28 0 c-0.04 0 -0.26 0.04 -0.32 0.04 c-0.32 0 -1.16 -0.02 -1.18 -0.08 l0 -0.02 c-0.06 0 -0.34 0.1 -0.8 0.1 c-0.54 0 -0.62 -0.12 -0.62 -0.2 c0 -0.04 0.02 -0.06 0.02 -0.06 z M27.538 19.84 c0.02 0.04 0.06 0.1 0.08 0.1 s0.06 -0.02 0.16 -0.06 c0 0 -0.08 -0.06 -0.12 -0.06 c-0.1 0 -0.08 0 -0.12 0.02 z M27.238 19.88 l0 -0.02 c-0.02 0 -0.02 0 -0.02 0.02 s0 0.04 0.02 0.04 l0 -0.04 z M28.138 19.88 c0 -0.02 -0.02 -0.02 -0.08 -0.02 c-0.04 0 -0.08 0 -0.08 0.02 s0.04 0.04 0.08 0.04 s0.08 -0.02 0.08 -0.04 z M29.278 19.84 c-0.02 0 -0.04 0.02 -0.04 0.04 s0.02 0.04 0.04 0.04 c0 0 0.02 -0.02 0.02 -0.04 s-0.02 -0.04 -0.02 -0.04 z M31.938000000000002 19.84 c-0.02 -0.02 -0.02 0.02 -0.02 0.04 c0 0 0.02 -0.02 0.02 -0.04 z M26.798000000000002 19.78 c-0.02 0 -0.04 0.02 -0.04 0.04 s0.02 0.02 0.04 0.02 s0.02 0 0.02 -0.02 s0 -0.04 -0.02 -0.04 z M26.758 19.76 c-0.02 0 -0.04 0.02 -0.04 0.04 c0 0 0.02 0.02 0.04 0.02 s0.02 -0.02 0.02 -0.02 c0 -0.02 0 -0.04 -0.02 -0.04 z M32.798 19.52 c0 0.1 0.1 0.18 0.24 0.24 c0.28 0 0.28 -0.08 0.32 -0.12 c-0.02 -0.16 -0.1 -0.16 -0.16 -0.16 c-0.02 0 -0.04 0.08 -0.06 0.12 c-0.2 0 -0.2 -0.12 -0.32 -0.12 c-0.02 0 -0.02 0.02 -0.02 0.04 z M26.878 19.52 c0 -0.02 0 -0.02 -0.02 -0.02 c0 0 -0.02 0 -0.02 0.02 s0.02 0.04 0.02 0.04 c0.02 0 0.02 -0.02 0.02 -0.04 z M28.718 19.48 c-0.02 0 -0.04 0.02 -0.04 0.04 s0.02 0.04 0.04 0.04 s0.02 -0.02 0.02 -0.04 s0 -0.04 -0.02 -0.04 z M28.598 19.44 c-0.02 0 -0.04 0.02 -0.04 0.04 l0.04 0 l0.02 0 c0 -0.02 0 -0.04 -0.02 -0.04 z M31.238 10.54 c0 1.32 -0.04 2.06 0.26 2.12 l0.78 0 c0.02 0 0.08 -0.02 0.12 -0.02 c0.64 -0.16 0.84 -0.08 1.3 -0.22 c0.9 0 0.94 -0.38 1.22 -0.46 c0.14 0 0.48 -0.58 0.58 -0.68 l-0.02 0 c0 -0.04 0.22 -0.26 0.22 -0.5 c0 -0.44 0.2 -0.24 0.2 -1.22 c0 -1.06 -0.16 -2.14 -0.16 -2.5 c0.02 -0.02 0.02 -0.04 0.02 -0.06 c0 -0.1 -0.24 -0.22 -0.24 -0.36 c0 -0.02 0.02 -0.04 0.02 -0.06 c0 -0.72 -1.74 -1 -2.02 -1 c-0.26 0 -0.62 0.02 -1.16 0.02 c-0.06 -0.04 -0.12 -0.04 -0.18 -0.04 c-0.2 0 -0.42 0.04 -0.62 0.04 l-0.08 0 c-0.08 0 -0.2 0.06 -0.24 0.46 l0 1.1 s-0.04 0.08 -0.04 0.1 c0.06 0.34 0.06 0.8 0.06 1.28 c0 0.28 -0.02 1.98 -0.02 2 z M28.498 11.86 c0 0.04 0 0.06 0.02 0.06 z M34.998000000000005 5.4399999999999995 c-0.02 0 -0.02 0.02 -0.02 0.04 s0 0.04 0.02 0.04 s0.02 -0.02 0.02 -0.04 s0 -0.04 -0.02 -0.04 z M27.218 5.359999999999999 c-0.04 0 -0.14 0.04 -0.14 0.08 l0.02 0 s0.06 0 0.06 0.02 c0.02 0 0.06 -0.02 0.06 -0.1 z M27.438 5.4 c-0.02 0 -0.02 0.02 -0.02 0.04 l0.04 0 c0 -0.02 -0.02 -0.04 -0.02 -0.04 z M27.898 5.4399999999999995 c0 -0.02 -0.04 -0.02 -0.06 -0.02 c-0.04 0 -0.06 0 -0.06 0.02 c-0.02 0 0.1 0 0.12 0 z M34.918 5.359999999999999 l0.02 0.08 s0.04 0 0.06 -0.08 l-0.08 0 z M34.878 5.279999999999999 c-0.02 0 -0.04 0.02 -0.04 0.04 s0.02 0.04 0.04 0.04 s0.02 -0.02 0.02 -0.04 s0 -0.04 -0.02 -0.04 z M26.638 5.08 c-0.08 0.06 -0.1 0.16 -0.12 0.2 c0.12 -0.06 0.12 -0.08 0.12 -0.2 z M27.158 5.140000000000001 c-0.04 0 -0.12 0.04 -0.12 0.08 c0 0.02 0.04 0.02 0.08 0.02 s0.08 0 0.1 -0.04 c0 -0.06 -0.04 -0.06 -0.06 -0.06 z M33.198 5.24 c0 -0.02 -0.02 -0.02 -0.04 -0.02 c-0.04 0 -0.06 0 -0.06 0.02 s0.02 0.02 0.06 0.02 c0.02 0 0.04 0 0.04 -0.02 z M28.218 5.16 l-0.04 0.04 l0.04 0 l0 -0.04 z M39.657 20.08 c-0.22 0 -0.22 0.02 -0.36 0.02 c-0.04 0 -0.22 -0.16 -0.28 -0.22 c0 0 0.04 -0.3 0.04 -0.36 c0.72 -0.06 1.24 -0.08 1.8 -0.14 c0.06 0 0 -0.38 0.22 -0.38 l0 -0.32 c0.02 0.02 0.04 0.02 0.04 0.02 c0.12 0 0.1 -0.56 0.26 -0.6 c0 -0.04 0.08 -0.72 0.28 -0.88 l0.1 -0.38 s0.68 -2.32 0.94 -2.32 c0.02 0 0.06 0.02 0.08 0.02 c0.1 0 0.12 -0.04 0.12 -0.08 c0 -0.18 -0.16 -0.1 -0.16 -0.24 c0 -0.36 0.36 -1.04 0.4 -1.08 c0.02 -0.82 0.32 -0.62 0.32 -1.14 l0 0.02 c0.02 0 0.18 -0.5 0.26 -0.56 c0 0.04 0.02 0.04 0.02 0.04 s-0.02 0 -0.02 -0.02 c0 -0.12 0.4 -0.94 0.4 -1.16 c0.1 0 0.12 -0.02 0.12 -0.06 s-0.02 -0.08 -0.02 -0.14 c0 -0.12 0.04 -0.24 0.18 -0.4 l0 0.02 c0.04 0 0.02 -0.44 0.18 -0.44 l0.08 -0.38 l0.12 -0.1 l0 -0.32 l0.16 -0.12 l0 -0.34 s0.12 -0.04 0.12 -0.08 c-0.02 0 -0.04 -0.04 -0.04 -0.06 c0 -0.26 0.5 -1.02 0.5 -1.54 l0.1 -0.08 l0 -0.32 c0 0.02 0.02 0.02 0.02 0.02 c0.28 0 -0.1 -1.16 0.94 -1.16 c0.08 0 0.44 0.22 0.44 0.52 c0.08 0.08 -0.08 0.28 0.28 0.94 c0.02 0 0.5 1.3 0.5 1.64 c0.18 0 0.06 0.4 0.52 1.36 c0.12 0.54 0.34 0.52 0.34 0.76 l0 -0.02 s0.1 0.64 0.18 0.64 l-0.02 0 c0 0.08 0.48 0.6 0.48 1.22 c0.12 0.58 0.32 0.34 0.32 0.84 l-0.02 -0.02 c0 0.04 0.32 0.46 0.32 0.72 c-0.02 0 -0.04 0 -0.04 0.02 c0 0.08 0.22 0.36 0.22 0.46 c0 0.02 -0.02 0.02 -0.02 0.04 c0 0.04 0.2 0.2 0.2 0.56 c0.08 0.7 0.42 0.74 0.42 1.18 c-0.02 0.04 -0.04 0.06 -0.04 0.08 c0 0.1 0.32 0.1 0.32 0.56 c0 1.14 0.78 1.4 0.78 2.2 c0.08 0.64 0.46 0.86 0.52 0.9 l1.3 0 c0.08 0 0.2 0.06 0.26 0.1 l0 0.36 c-0.08 0.04 -0.14 0.12 -0.46 0.12 c-0.04 0 -1 -0.04 -1.4 -0.04 c-0.18 0 -0.34 0.04 -0.5 0.04 c-0.02 0 -0.34 -0.04 -0.38 -0.04 c-1.08 0 -1.76 0.06 -2.18 0.06 c-0.02 0 -0.02 -0.06 -0.34 -0.06 c-0.16 0 -0.2 0 -0.28 0.04 c-0.1 0 -0.18 -0.04 -0.22 -0.1 c-0.04 0 -0.12 0.02 -0.12 0.02 l0.04 0.04 l-0.04 0.04 c-0.66 0 -0.72 0 -0.86 -0.12 l0.04 -0.34 c0 -0.04 0.14 -0.12 0.22 -0.12 l1.5 0 c0.02 0.02 0.16 -0.1 0.16 -0.2 c0 -0.04 -0.32 -0.46 -0.32 -0.7 c0.04 -0.02 0.04 -0.02 0.04 -0.06 c0 -0.1 -0.34 -0.36 -0.34 -0.88 c0.02 0 0.02 0 0.02 -0.02 c0 -0.04 -0.22 -0.2 -0.22 -0.36 c0 -0.72 -0.32 -0.72 -0.32 -1.26 l0 0.02 c-0.04 0 -0.22 -0.5 -0.4 -0.5 c-1.34 0 -2.76 0.04 -4.38 0.04 c0 0.08 -0.16 0.12 -0.16 0.34 c-0.3 0.66 -0.34 0.56 -0.34 0.88 c-0.24 0.16 0.02 0.28 -0.26 0.62 c-0.16 1.1 -0.38 0.48 -0.38 1.22 l0 -0.02 c-0.04 0 -0.22 0.52 -0.24 0.52 c0 0.32 0.08 0.32 0.2 0.4 l1.6 0 c0.1 0 0.3 0.02 0.3 0.26 s-0.06 0.36 -0.42 0.36 c-0.06 0 -0.14 -0.04 -0.24 -0.04 c-0.22 0 -0.3 0.04 -0.4 0.04 c-0.04 0 -0.14 -0.04 -0.16 -0.04 l-1.42 0 c-0.04 0.04 -0.08 0.04 -0.12 0.04 c-0.06 0 -0.16 -0.02 -0.24 -0.08 c0 0 0.04 -0.04 0.04 -0.08 l-0.06 0 c-0.04 0 -0.06 0 -0.06 0.04 l0.02 0.04 c-0.02 0.08 -0.04 0.08 -0.16 0.08 c0 -0.26 0 -0.2 0.06 -0.28 c-0.02 -0.08 0.02 -0.18 -0.04 -0.22 c0 0.14 -0.06 0.24 -0.18 0.32 c0 0.04 0.06 0.08 0.1 0.1 c-0.08 0 -0.3 0.1 -0.34 0.16 c-0.36 0 -0.32 -0.08 -0.54 -0.08 z M39.49699999999999 19.92 l0 0.04 l0.1 0 c-0.06 -0.04 -0.08 -0.04 -0.1 -0.04 z M39.836999999999996 19.96 c0 -0.02 -0.02 -0.02 -0.04 -0.02 s-0.04 0 -0.04 0.02 s0.02 0.04 0.04 0.04 s0.04 -0.02 0.04 -0.04 z M39.956999999999994 19.92 c-0.02 0 -0.04 0.02 -0.04 0.04 s0.02 0.04 0.04 0.04 s0.02 -0.02 0.02 -0.04 s0 -0.04 -0.02 -0.04 z M40.39699999999999 19.88 c-0.12 0 -0.28 0.04 -0.32 0.08 c0.34 0 0.24 -0.02 0.32 -0.08 z M41.056999999999995 19.9 c0 0.02 0.16 0.04 0.18 0.06 l0.04 -0.04 c-0.1 -0.02 -0.2 -0.02 -0.22 -0.02 z M42.53699999999999 19.92 c0.26 0 0.66 0.04 0.76 0.04 c-0.22 0 -0.22 -0.22 -0.24 -0.32 c0.02 0 -0.16 0.04 -0.16 0.16 c-0.04 0 -0.02 -0.12 -0.18 -0.12 c0 0.14 -0.08 0.18 -0.18 0.24 z M43.456999999999994 19.92 l0.04 0.04 c0.02 0 0.14 -0.04 0.18 -0.04 l-0.22 0 z M40.696999999999996 19.9 c-0.02 0 -0.04 0.02 -0.04 0.04 c0 0 0.02 0.02 0.04 0.02 s0.02 -0.02 0.02 -0.02 c0 -0.02 0 -0.04 -0.02 -0.04 z M42.276999999999994 19.92 c0 0 -0.04 -0.02 -0.06 -0.02 c-0.04 0 -0.04 0.02 -0.04 0.02 c0 0.02 0 0.04 0.04 0.04 c0.02 0 0.06 -0.02 0.06 -0.04 z M47.196999999999996 19.88 c0.02 0.02 0.08 0.04 0.1 0.04 s0.12 -0.02 0.16 -0.04 l0 -0.24 s-0.04 -0.02 -0.06 -0.02 c-0.18 0 -0.2 0.04 -0.2 0.12 l0 0.14 z M52.61699999999999 19.9 c0.06 0 0.08 0.02 0.18 0.02 c0.02 0 0.12 -0.02 0.18 -0.02 l-0.36 0 z M53.577 19.9 l0 0.02 l0.02 -0.02 l-0.02 0 z M47.75699999999999 19.88 l-0.04 0.02 l0.06 0.02 z M49.25699999999999 19.88 c-0.02 0 -0.04 0.02 -0.04 0.02 s0.02 0.02 0.04 0.02 s0.02 -0.02 0.02 -0.02 s0 -0.02 -0.02 -0.02 z M51.99699999999999 19.88 c0.02 0.02 0.04 0.02 0.1 0.02 l0.38 0 c-0.02 -0.02 -0.06 -0.04 -0.1 -0.06 c-0.04 0.04 -0.1 0.04 -0.12 0.04 c-0.18 0 -0.14 -0.14 -0.18 -0.14 z M39.17699999999999 19.74 c0 0.12 0 0.1 0.04 0.14 l0.26 0 l0 -0.34 c-0.28 0.14 -0.3 0.08 -0.3 0.2 z M43.39699999999999 19.78 l0 0.1 c0.04 0 0.06 -0.04 0.06 -0.04 c-0.02 -0.12 -0.08 -0.12 -0.08 -0.22 c-0.08 0 -0.12 0.04 -0.12 0.06 c0.02 0.04 0.04 0.1 0.14 0.1 z M53.17699999999999 19.84 c-0.02 0 -0.02 0.02 -0.02 0.04 s0 0.02 0.02 0.02 s0.02 0 0.02 -0.02 s0 -0.04 -0.02 -0.04 z M39.71699999999999 19.62 c0 0.16 -0.02 0.2 -0.06 0.22 c0.12 0 0.22 0 0.22 -0.12 s-0.02 -0.1 -0.16 -0.1 z M41.836999999999996 19.8 l0 0.04 l0.04 0 z M42.196999999999996 19.72 l0.04 0.02 l0 -0.06 z M43.49699999999999 19.58 c0 0.02 0 0.06 0.02 0.06 c0 0 0.08 0 0.08 -0.06 c0 -0.04 -0.04 -0.04 -0.08 -0.06 c-0.02 0.02 -0.02 0.04 -0.02 0.06 z M52.63699999999999 19.62 c0 0.02 0.04 0.02 0.06 0.02 c0 -0.1 0 -0.1 -0.04 -0.12 c0 0 -0.02 0.06 -0.02 0.1 z M53.516999999999996 19.48 c-0.1 0.02 -0.08 0.06 -0.08 0.16 l0.16 -0.1 c0 -0.02 -0.06 -0.04 -0.08 -0.06 z M51.99699999999999 19.54 c-0.02 0 -0.04 0.02 -0.04 0.02 c0 0.02 0.02 0.02 0.04 0.02 s0.02 0 0.02 -0.02 c0 0 0 -0.02 -0.02 -0.02 z M41.016999999999996 19.48 l0 0.06 l0.04 -0.06 l-0.04 0 z M41.077 19.18 c0 0.02 0.02 0.3 0.2 0.3 c-0.04 -0.02 -0.1 -0.2 -0.1 -0.3 l0.04 -0.12 l-0.04 -0.04 c-0.08 0 -0.1 0.12 -0.1 0.16 z M41.81699999999999 18.24 c-0.06 0.04 -0.14 0.16 -0.14 0.32 c0.02 0.02 0.04 0.02 0.04 0.02 c0.08 0 0.1 -0.12 0.12 -0.18 c0 -0.02 -0.02 -0.18 -0.02 -0.16 z M41.71699999999999 17.72 c0 -0.02 -0.02 -0.02 -0.02 -0.02 c-0.02 0 -0.02 0 -0.02 0.02 s0 0.02 0.02 0.02 c0 0 0.02 0 0.02 -0.02 z M42.276999999999994 16.28 c-0.02 0 -0.04 0.02 -0.04 0.02 s0.02 0.02 0.04 0.02 l0.02 -0.02 z M47.956999999999994 16 c-0.02 0 -0.02 0.02 -0.02 0.04 s0 0.04 0.02 0.04 s0.02 -0.02 0.02 -0.04 s0 -0.04 -0.02 -0.04 z M42.456999999999994 15.84 c-0.02 0 -0.02 0.02 -0.02 0.04 s0 0.04 0.02 0.04 s0.02 -0.02 0.02 -0.04 s0 -0.04 -0.02 -0.04 z M42.456999999999994 15.42 c-0.02 0 -0.02 0.02 -0.02 0.02 c0 0.02 0 0.02 0.02 0.02 s0.02 0 0.02 -0.02 c0 0 0 -0.02 -0.02 -0.02 z M43.376999999999995 14.6 c0.06 0.24 0.08 0.26 0.22 0.34 c0.24 0 0.9 -0.04 2.72 -0.04 c0.16 0 0.24 0.06 0.64 0.06 c0.2 0 0.4 -0.06 0.4 -0.28 c0 -0.1 -0.26 -0.48 -0.26 -0.68 l0.02 0 c0 -0.04 -0.22 -0.22 -0.22 -0.44 c0 -0.74 -0.38 -0.66 -0.38 -1.12 c0.02 0.02 0.02 0.04 0.02 0.04 c-0.02 0 -0.38 -0.66 -0.38 -1.04 c0 -0.26 -0.36 -0.64 -0.36 -1.08 l0.02 0 c0 -0.04 -0.22 -0.24 -0.22 -0.48 c-0.18 -0.42 -0.2 -0.38 -0.36 -0.38 c-0.58 1.38 -0.54 1.4 -0.72 1.74 c0 -0.04 -0.02 0.64 -0.28 0.74 l0 -0.04 c-0.02 0 -0.22 1.14 -0.42 1.32 c0 0.26 -0.44 0.6 -0.44 1.34 z M42.977 14.04 c-0.02 0 -0.04 0.02 -0.04 0.04 s0.02 0.04 0.04 0.04 s0.02 -0.02 0.02 -0.04 s0 -0.04 -0.02 -0.04 z M43.437 12.719999999999999 c-0.02 0 -0.04 0.02 -0.04 0.04 c0 0 0.02 0.02 0.04 0.02 l0 -0.06 z M44.276999999999994 11.54 l0 0.02 l0.02 0 z M44.196999999999996 11.22 c-0.02 0 -0.04 0.02 -0.04 0.04 l0.04 0 l0.02 0 c0 -0.02 0 -0.04 -0.02 -0.04 z M44.276999999999994 10.7 c-0.02 0 -0.04 0.02 -0.04 0.02 c0 0.02 0.02 0.04 0.04 0.04 c0 0 0.02 -0.02 0.02 -0.04 z M44.81699999999999 9.34 c0 -0.02 -0.02 -0.02 -0.02 -0.02 c-0.02 0 -0.02 0 -0.02 0.02 s0 0.04 0.02 0.04 c0 0 0.02 -0.02 0.02 -0.04 z M44.876999999999995 9.28 l-0.02 0 c0 0.02 0.02 0.02 0.02 0.02 s0.02 0 0.02 -0.02 l-0.02 0 z M47.056999999999995 7.880000000000001 c-0.02 0 -0.02 0.02 -0.02 0.04 s0 0.04 0.02 0.04 s0.02 -0.02 0.02 -0.04 s0 -0.04 -0.02 -0.04 z M46.67699999999999 5.1 c0 0 -0.02 0.02 -0.02 0.04 l0.04 0 c0 -0.02 0 -0.04 -0.02 -0.04 z M46.157 5.0600000000000005 c-0.02 0 -0.02 0.02 -0.02 0.04 s0 0.04 0.02 0.04 s0.02 -0.02 0.02 -0.04 s0 -0.04 -0.02 -0.04 z M46.31699999999999 5.0600000000000005 l0.08 0.04 c0.16 0 0.1 0 0.16 -0.04 l-0.06 -0.08 c-0.08 0 -0.12 0.08 -0.18 0.08 z M59.855999999999995 19.76 c-0.02 0 -0.16 -0.02 -0.18 -0.02 c-0.9 -0.56 -1.08 -0.58 -1.46 -0.74 c0 -0.36 -0.4 -0.24 -0.54 -0.46 c0 -0.14 -0.66 -0.36 -0.66 -0.68 c-0.34 -0.04 -0.18 -0.44 -0.44 -0.54 c0.04 -0.06 -0.42 -0.3 -0.42 -0.56 c0 -0.24 -0.52 -0.8 -0.52 -1.02 c0 -0.28 -0.46 -1.04 -0.46 -1.52 c-0.02 0 -0.24 -1.06 -0.24 -1.42 c0 -0.48 0.06 -0.9 0.06 -1.24 c0 0 0.36 -1.28 0.36 -1.46 c-0.02 0 -0.04 -0.02 -0.04 -0.04 c0 -0.1 0.3 -0.28 0.3 -0.62 c0.22 -0.66 -0.1 0.06 0.38 -0.92 c0.26 0 -0.02 -0.14 0.42 -0.58 l0 0.04 c0.02 0 0.02 -0.48 0.32 -0.48 c0 -0.02 0.2 -0.54 0.68 -0.84 c0.04 0 0.1 -0.26 0.18 -0.26 c1.2 -1 0.96 -0.66 1.42 -1.12 l0 0.04 c0.08 0 0.52 -0.32 0.62 -0.32 c0 0 0.4 -0.34 1.02 -0.34 c0.04 0 0.06 0.02 0.06 0.02 c0.1 0 -0.22 -0.24 1.62 -0.24 c0.76 0 0.7 0.16 1.3 0.16 c-0.02 0 -0.02 -0.02 -0.02 -0.02 c0.02 0 0.26 0.22 0.38 0.22 l0.62 0.08 l0.2 0.16 l0 0.04 c0.08 0 0.6 0.24 0.64 0.24 c0.02 0.02 0.02 0.04 0.04 0.04 c0.06 0 0.12 -0.14 0.3 -0.2 c0.5 -0.06 0 -0.32 0.96 -0.32 c-0.2 0.1 0.26 -0.16 0.26 0.32 c0 0.92 0.08 1.52 0.08 2.52 c0 0.16 -0.04 0.24 -0.04 0.34 c0 0.08 0.12 0.38 0.12 1.1 c0 0.32 -0.1 0.18 -0.2 0.28 l-0.52 0 c-0.06 0 -0.36 -0.48 -0.38 -0.6 l0 -0.02 c-0.04 0 -0.1 -0.38 -0.26 -0.56 c-0.02 0 -0.14 -0.64 -0.44 -1.06 c0 -0.04 -0.44 -0.44 -0.44 -0.54 c0.02 0 0.02 0 0.02 -0.02 c0 -0.06 -0.38 -0.28 -0.4 -0.34 c0.02 -0.26 -0.56 -0.36 -0.56 -0.6 c-0.2 0 -0.5 -0.54 -1.56 -0.54 c-1.3 0 -1.64 0.06 -2.08 0.32 c0 0.14 -0.6 0.08 -0.6 0.44 c-0.02 0 -0.22 0.14 -0.26 0.14 c-0.06 0.06 -0.08 0.06 -0.08 0.08 s0.02 0.02 0.02 0.06 l0 0 c-0.04 0 -0.74 1.22 -0.74 1.78 c0 0.08 -0.1 0.54 -0.12 0.56 l-0.06 0.82 l-0.04 0.04 l0 0.42 c-0.06 0 -0.12 0.76 -0.12 0.94 c0 0 0 0.1 0.02 0.28 c0 0 -0.02 0.18 -0.02 0.36 c0 0.2 0 0.46 0.02 0.54 c-0.02 0.04 -0.02 0.08 -0.02 0.12 c0 0.1 0.02 0.32 0.02 0.46 c-0.02 0.02 -0.02 0.06 -0.02 0.12 c0 0.14 0.02 0.36 0.02 0.5 c0 0.26 -0.02 0.26 -0.02 0.4 s0 0.26 0.08 0.4 c0 0.14 0 0.14 -0.02 0.2 l0.02 0.08 c0 0.24 0.02 0.36 -0.02 0.4 c0.06 1.82 0.42 3.14 0.72 3.28 c0 0.14 -0.16 0.1 0.72 0.98 c0 0 0.42 0.48 0.88 0.48 l-0.02 -0.02 c0.02 0 0.24 0.2 0.86 0.2 c1.52 0 1.64 0.04 2.02 -0.34 c0.12 -0.1 0.5 -0.14 0.56 -0.16 c0.34 -0.54 0.36 -0.24 0.56 -0.56 c-0.04 -0.12 0.46 -0.46 0.72 -0.8 c0 0 0.1 -0.62 0.38 -0.88 l-0.02 0.02 l0 -0.02 c0 -0.06 0.4 -0.8 0.48 -0.86 c0 0.04 0 0.04 0.02 0.04 s0.1 -0.7 0.48 -0.7 c0.02 0.02 0.04 0.02 0.04 0.02 c0.06 0 0.08 -0.04 0.16 -0.04 c0.06 0 0.16 0.04 0.36 0.22 c0 1.22 -0.12 1.74 -0.12 2.44 c0 0.1 0.02 0.18 0.02 0.22 l-0.02 1.38 c-0.04 0.16 -0.04 0.44 -0.34 0.44 c-0.94 0 -0.1 -0.04 -1.26 -0.52 c-0.08 0 -0.36 0.14 -0.52 0.14 c0 -0.02 -0.02 -0.02 -0.04 -0.02 c-0.1 0 -0.36 0.38 -0.56 0.38 c0.04 0 -1.18 0.02 -1.44 0.24 c-0.18 0 -0.34 -0.04 -0.56 -0.04 c0 0.08 -0.5 0 -0.48 0.08 c-0.86 0 -1.16 -0.24 -1.62 -0.24 c-0.22 0 -0.54 -0.02 -0.54 -0.18 z M62.736 19.98 c-0.02 0 -0.04 0.02 -0.04 0.04 s0.02 0.04 0.04 0.04 l0 -0.08 z M62.696 19.94 c-0.02 0 -0.04 0.02 -0.04 0.04 s0.02 0.04 0.04 0.04 s0.02 -0.02 0.02 -0.04 s0 -0.04 -0.02 -0.04 z M60.896 19.92 l0.06 0.02 l0.02 -0.02 l-0.08 0 z M60.495999999999995 19.82 c-0.02 0 -0.02 0.02 -0.02 0.04 s0 0.04 0.02 0.04 s0.02 -0.02 0.02 -0.04 s0 -0.04 -0.02 -0.04 z M59.855999999999995 19.6 l0 0.04 l0.02 0 z M66.896 19.54 c-0.02 0 -0.02 0.02 -0.02 0.02 l0.04 0 c0 0.02 0 -0.02 -0.02 -0.02 z M67.01599999999999 17.2 c0 0 0 -0.02 -0.02 -0.02 c0 0 -0.04 0.02 -0.04 0.04 c0.06 0 0.06 0 0.06 -0.02 z M67.056 17.12 c0 -0.02 -0.02 -0.02 -0.02 -0.02 c-0.02 0 -0.02 0 -0.02 0.02 s0 0.04 0.02 0.04 c0 0 0.02 -0.02 0.02 -0.04 z M56.076 16.22 c-0.02 -0.02 -0.08 0.04 -0.08 0.1 c0.1 0 0.08 -0.02 0.08 -0.1 z M67.096 15.52 c0 0.02 -0.02 0.04 -0.02 0.08 s0.02 0.08 0.06 0.08 l0.04 -0.04 c0 -0.06 0.02 -0.12 -0.08 -0.12 z M66.616 15.52 c0 0 0.04 0.1 0.08 0.12 c0 -0.06 0 -0.16 0.2 -0.16 c-0.02 -0.02 -0.02 -0.04 -0.06 -0.04 c-0.1 0 -0.14 0.08 -0.22 0.08 z M55.675999999999995 15.059999999999999 l0.04 -0.02 z M55.355999999999995 14.18 c-0.06 0 -0.04 0.16 -0.04 0.2 s0 0.04 0.02 0.04 c0.04 0 0.08 -0.02 0.08 -0.04 l0 -0.16 s-0.04 -0.04 -0.06 -0.04 z M55.256 13.98 c0.04 0 0.02 0.04 0.12 0.04 c0 0 0.02 0 0.08 -0.02 c-0.04 -0.02 -0.16 -0.02 -0.2 -0.02 z M55.315999999999995 12.379999999999999 c0 -0.02 0 -0.02 -0.02 -0.02 l0 0.06 c0.02 0 0.02 -0.02 0.02 -0.04 z M55.296 11.52 l0.02 0.04 c0.04 -0.02 0.06 -0.02 0.06 -0.08 z M55.576 10.26 c-0.1 0 -0.1 0.06 -0.1 0.08 c0.06 -0.02 0.12 -0.04 0.14 -0.08 l-0.04 0 z M55.635999999999996 10.02 c-0.02 0 -0.02 0 -0.02 0.02 c0 0 0 0.02 0.02 0.02 s0.02 -0.02 0.02 -0.02 c0 -0.02 0 -0.02 -0.02 -0.02 z M55.635999999999996 9.78 c-0.02 0 -0.02 0.02 -0.02 0.04 s0 0.02 0.02 0.02 s0.02 0 0.02 -0.02 s0 -0.04 -0.02 -0.04 z M57.516 6.84 c-0.02 0 -0.02 0.02 -0.02 0.02 c0 0.04 0.06 0.12 0.1 0.12 l0 -0.22 c-0.08 0 -0.08 0.02 -0.08 0.08 z M65.676 6.779999999999999 c-0.02 0 -0.02 0.02 -0.02 0.04 c0 0 0 0.02 0.02 0.02 s0.02 -0.02 0.02 -0.02 c0 -0.02 0 -0.04 -0.02 -0.04 z M66.816 5.619999999999999 l0.04 0.04 l0 -0.04 l-0.04 0 z M59.796 5.16 c-0.08 0.04 -0.06 0.08 -0.06 0.12 c0.08 -0.02 0.06 -0.06 0.06 -0.12 z M60.196 5.199999999999999 c0 0.04 0 0.06 0.02 0.06 l0.02 -0.02 l0 -0.04 l-0.04 0 z M60.436 5.24 c0 -0.02 -0.02 -0.02 -0.02 -0.02 c-0.02 0 -0.02 0 -0.02 0.02 s0 0.04 0.02 0.04 c0 0 0.02 -0.02 0.02 -0.04 z M60.076 5.08 c-0.02 0 -0.04 0.02 -0.04 0.04 s0.02 0.04 0.04 0.04 s0.02 -0.02 0.02 -0.04 s0 -0.04 -0.02 -0.04 z M63.176 4.84 c0.02 0.06 0.04 0.1 0.1 0.12 c-0.02 0 0 -0.12 -0.02 -0.14 c-0.06 0 -0.06 0.02 -0.08 0.02 z M60.476 4.84 l0 0.04 l0.02 0 z M60.596 4.82 c-0.02 0 -0.02 0.02 -0.02 0.04 c0 0 0 0.02 0.02 0.02 s0.02 -0.02 0.02 -0.02 c0 -0.02 0 -0.04 -0.02 -0.04 z M60.896 4.82 l0 0.02 l0.12 0 z M71.05499999999999 19.72 l0 -0.1 l0.24 -0.24 l0.98 0 l0.08 0.04 l0.46 0.04 c0.08 0.04 0.18 -0.26 0.24 -0.26 l0 -2.42 c0 -0.02 -0.04 -0.26 -0.04 -0.28 c0 0 0.04 -0.48 0.04 -0.58 c0.04 -0.06 -0.06 0.08 -0.06 -0.32 c0 -0.04 0.06 -0.08 0.06 -0.16 c0 -0.14 -0.04 -0.22 -0.04 -0.32 c0 -0.04 0.04 -0.18 0.04 -0.26 l0 -1.26 c0 -0.18 -0.06 -0.5 -0.06 -0.74 l0.02 -1.72 c-0.02 -0.08 -0.02 -0.6 -0.02 -0.7 c0 -0.06 0.02 -0.52 0.02 -0.58 c0 -0.02 -0.02 -1.04 -0.02 -1.16 c0 -1.24 0.02 -1.46 0.02 -2 c0 -0.24 0 -0.76 -0.02 -0.92 l-0.12 -0.14 s-0.4 -0.02 -0.56 -0.02 c-0.26 0 -0.46 0.06 -0.7 0.06 c-0.22 -0.04 -0.44 0.12 -0.64 -0.34 c0 -0.18 0.04 -0.4 0.22 -0.44 c4.08 0 4.5 0.04 6.12 0.04 c3.88 0 3.66 -0.04 5.28 -0.04 c0.2 0 0.42 3.66 0.42 3.84 c0 0.02 0.02 0.02 0.02 0.04 c0 0.24 -0.36 0.42 -0.48 0.42 c-0.26 0 -0.4 -0.28 -0.48 -0.6 c0.08 0 -0.86 -1.54 -0.82 -1.46 c-0.26 -0.26 -0.28 -0.3 -0.44 -0.5 c0 -0.18 -0.86 -0.58 -0.96 -0.72 c0 0.02 -0.02 0.02 -0.02 0.02 c-0.06 0 -0.12 -0.24 -0.54 -0.24 c-0.56 0 -0.52 -0.08 -1.38 -0.08 l0 -0.04 l-0.62 0 l-0.04 0.04 l-0.26 0 l0.14 -0.04 c-0.46 0 -0.66 -0.06 -0.78 -0.06 c-0.18 0 -0.4 0.1 -0.4 0.68 c0 1.12 0.04 1.72 0.04 2 c0 0.3 -0.04 1.18 -0.04 1.3 c0 0.34 0.08 0.62 0.08 0.86 c-0.04 0 -0.08 0.14 -0.08 0.2 s0.08 0.44 0.08 0.62 c0 0.04 -0.04 0.1 -0.04 0.12 c0 0.06 -0.06 0.82 0.14 0.82 c0.46 0 0.8 -0.12 1.16 -0.12 l0 0.02 c0.06 0 0.24 -0.3 0.38 -0.3 c0.24 0 0.28 -0.08 0.54 -0.34 l0 0.02 c-0.02 0 0.34 -0.72 0.54 -0.96 c0.34 -0.16 -0.12 -1 0.88 -1 l0.06 0.04 c0 0.18 0.1 0.24 0.1 0.8 c-0.02 0.16 -0.04 0.68 -0.04 0.64 c0 0.22 0.04 0.56 0.04 0.84 c0 0.24 0 0.24 -0.04 0.36 c0 0.2 0.04 0.46 0.04 0.52 c0 0.26 -0.04 0.26 -0.04 0.46 c0 0.16 0.04 1.24 0.04 1.38 c0 0.08 -0.04 0.16 -0.04 0.28 l0 0.74 c0.02 0.02 -0.16 0.16 -0.26 0.16 c-0.64 0 -0.1 -0.12 -0.82 -1.42 c-0.56 -0.98 -0.74 -0.94 -1.06 -1.22 c0.02 0 -0.58 -0.2 -0.72 -0.2 l-0.06 -0.1 l-0.64 -0.02 c-0.3 0.16 -0.26 1 -0.26 0.68 c0 0.08 0.06 0.28 0.06 0.58 c0 0.14 -0.02 0.38 -0.06 0.6 c0 0.02 0.06 0.2 0.06 0.32 c0 0.2 -0.04 0.18 -0.04 0.26 c0 0.14 0.04 0.22 0.04 0.28 c-0.06 0.78 -0.08 2.18 -0.08 2.42 c0 1.26 -0.02 1.36 0.28 1.66 l0.86 0 c0.08 -0.02 0.18 -0.08 0.26 -0.08 c0.02 0 1.2 0.04 1.36 0.04 s0.02 -0.1 0.44 -0.1 c0.76 -0.3 0.72 -0.04 1.36 -0.54 c-0.02 0 -0.02 -0.02 -0.02 -0.02 c0 -0.06 0.5 -0.28 0.76 -0.6 c-0.02 0 -0.02 -0.02 -0.02 -0.02 c0 -0.3 0.88 -0.52 0.88 -1.24 c0 -0.08 0.36 -0.54 0.36 -0.66 c0.5 -1.26 0.18 -1.2 0.82 -1.2 c0.02 0 0.24 0 0.24 0.26 c0 1.3 -0.2 2.9 -0.2 3.8 c0 0.14 0.02 0.28 0.02 0.42 c0 0.24 -0.08 0.44 -0.56 0.44 l-7.7 0 c-1.16 0 -1.58 0.04 -3.72 0.04 c-0.38 -0.12 -0.28 -0.28 -0.28 -0.32 z M71.255 19.8 l0 -0.02 l0 0.06 c0 0.06 0.02 0.14 0.2 0.14 c0.04 0 0.1 0 0.16 -0.02 l0 -0.04 l-0.16 -0.18 c-0.02 0.04 -0.04 0.08 -0.08 0.1 c-0.02 0 -0.08 -0.02 -0.12 -0.06 l0 0.02 z M78.355 19.88 l0.02 0.04 c0.02 -0.02 0.02 -0.02 0.02 -0.08 z M77.575 19.84 c-0.06 0 -0.08 0 -0.1 0.04 l0.1 0 l0 -0.04 z M71.955 19.62 c0.04 0 0.12 0.04 0.14 0.04 c0.18 0 0.12 0 0.18 -0.04 c-0.04 0 -0.18 -0.04 -0.2 -0.04 c-0.08 0 -0.08 0 -0.12 0.04 z M82.935 19.62 c0.02 0.06 0.08 0.04 0.12 0.04 c-0.02 -0.04 -0.06 -0.04 -0.12 -0.04 z M73.495 19.62 c0 -0.02 -0.02 -0.02 -0.04 -0.02 s-0.04 0 -0.04 0.02 s0.02 0.04 0.04 0.04 s0.04 -0.02 0.04 -0.04 z M71.375 19.56 l0 0.02 l0.2 0 c-0.04 -0.02 -0.16 -0.02 -0.2 -0.02 z M73.215 16.9 l-0.02 -0.02 c-0.02 0 -0.02 0.02 -0.02 0.02 c0 0.02 0 0.04 0.02 0.04 c0 0 0.02 -0.02 0.02 -0.04 z M73.175 16.04 l0 0.08 c0.02 0 0.02 -0.02 0.02 -0.04 s0 -0.04 -0.02 -0.04 z M73.215 15.92 c0.02 0.04 0.06 0.04 0.12 0.04 c0 -0.04 0.02 -0.16 -0.04 -0.2 c0 0.04 -0.08 0.1 -0.08 0.16 z M73.335 15.54 c0 0.02 0 0.04 0.02 0.06 l0.02 -0.06 l-0.04 0 z M83.335 15.54 c-0.02 0 -0.04 0.02 -0.04 0.04 c0 0 0.02 0.02 0.04 0.02 s0.02 -0.02 0.02 -0.02 c0 -0.02 0 -0.04 -0.02 -0.04 z M83.435 15.5 c-0.02 0 -0.02 0.02 -0.02 0.04 c0 0 0 0.02 0.02 0.02 l0 -0.06 z M73.215 12.48 c-0.02 0 -0.04 0.02 -0.04 0.04 c0 0 0.02 0.02 0.04 0.02 s0.02 -0.02 0.02 -0.02 c0 -0.02 0 -0.04 -0.02 -0.04 z M73.355 12.48 c0 -0.02 0 -0.02 -0.02 -0.02 l0 0.04 c0.02 0 0.02 0 0.02 -0.02 z M73.215 11.6 l-0.02 -0.02 c-0.02 0 -0.02 0.02 -0.02 0.02 c0 0.02 0 0.04 0.02 0.04 c0 0 0.02 -0.02 0.02 -0.04 z M79.595 9.92 c0 -0.02 -0.02 -0.02 -0.04 -0.02 c0 0 -0.02 0 -0.02 0.02 s0.02 0.04 0.02 0.04 c0.02 0 0.04 -0.02 0.04 -0.04 z M82.435 8.96 c-0.02 0 -0.04 0.02 -0.04 0.04 c0 0 0.02 0.02 0.04 0.02 s0.02 -0.02 0.02 -0.02 c0 -0.02 0 -0.04 -0.02 -0.04 z M75.475 7.960000000000001 c-0.02 0.02 -0.02 0.06 -0.02 0.08 l0.22 0 c-0.02 -0.04 -0.1 -0.08 -0.2 -0.08 z M73.175 7.18 l0 0.08 c0.02 0 0.02 -0.02 0.02 -0.04 s0 -0.04 -0.02 -0.04 z M73.175 6.16 l0 0.08 c0.02 0 0.02 -0.02 0.02 -0.04 s0 -0.04 -0.02 -0.04 z M82.635 5.42 l0 0.2 l0.02 -0.1 c0 -0.04 0 -0.06 -0.02 -0.1 z M72.475 5.539999999999999 c-0.02 0 -0.02 0.02 -0.02 0.04 s0 0.04 0.02 0.04 s0.02 -0.02 0.02 -0.04 s0 -0.04 -0.02 -0.04 z M74.155 5.58 c0 -0.02 -0.02 -0.02 -0.02 -0.02 c-0.02 0 -0.02 0 -0.02 0.02 s0 0.04 0.02 0.04 c0 0 0.02 -0.02 0.02 -0.04 z M71.915 5.380000000000001 c-0.18 0 -0.08 0.14 -0.14 0.16 c0.12 0 0.14 -0.02 0.14 -0.06 c0 -0.02 -0.02 -0.04 -0.02 -0.06 s0.02 -0.02 0.02 -0.04 z M72.395 5.48 l0.06 0.04 l0.02 -0.04 l-0.04 -0.02 z M71.515 5.42 c-0.02 0 -0.02 0.02 -0.02 0.04 c0 0 0 0.02 0.02 0.02 s0.02 -0.02 0.02 -0.02 c0 -0.02 0 -0.04 -0.02 -0.04 z M71.715 5.34 l-0.14 0.04 l0.14 0 l0 -0.04 z M73.495 5.34 c-0.02 0 -0.04 0.02 -0.04 0.02 c0 0.02 0.02 0.02 0.04 0.02 c0 0 0.02 0 0.02 -0.02 z M75.515 5.34 l0 0.04 l0.02 0 z M71.815 5.34 l-0.04 0 c0 0.02 0 0.04 0.02 0.04 c0 0 0.02 -0.02 0.02 -0.04 z M72.275 5.32 c-0.04 0 -0.04 0.04 -0.04 0.04 c0.02 0 0.02 -0.02 0.04 -0.04 z M73.135 5.34 l-0.04 0 c0 0.02 0 0.04 0.02 0.04 c0 0 0.02 -0.02 0.02 -0.04 z M76.395 5.32 c-0.04 0 -0.08 0.02 -0.12 0.02 l0.14 0 z M71.215 5.32 c0 0 0 -0.02 -0.02 -0.02 l0 0.04 c0.02 0 0.02 0 0.02 -0.02 z M77.255 5.26 c0 0.08 0.02 0.04 0.04 0.06 c0 0 0.02 0 0.04 -0.02 l-0.04 -0.08 z M82.555 5.0600000000000005 l0 0.24 l0.04 0 c0 -0.06 0.02 -0.24 -0.04 -0.24 z M72.035 5.1 c-0.02 0 -0.04 0.02 -0.04 0.02 c0 0.02 0.02 0.02 0.04 0.02 s0.02 0 0.02 -0.02 c0 0 0 -0.02 -0.02 -0.02 z M71.375 5.1 l-0.02 -0.04 z M71.615 5.02 c-0.04 0.02 -0.06 0.04 -0.06 0.06 l0.02 0.02 l0.04 0 l0 -0.08 z"/></g>
			</g>
		</svg>
	